<mxfile host="65bd71144e">
    <diagram name="Page-1" id="TXgYooz5_KPo_r2eJ7k2">
        <mxGraphModel dx="3140" dy="2320" grid="0" gridSize="10" guides="1" tooltips="1" connect="1" arrows="1" fold="1" page="0" pageScale="1" pageWidth="850" pageHeight="1100" background="none" math="0" shadow="0">
            <root>
                <mxCell id="0"/>
                <mxCell id="1" parent="0"/>
                <UserObject label="" plantUmlData="{&#10;  &quot;data&quot;: &quot;@startuml\nclass Student {\n    +studentID: String\n    +name: String\n    +email: String\n    +phone: String\n    +address: String\n    +updateInfo()\n    +registerCourse(courseID: String)\n    +viewGrades(): List&lt;Grade&gt;\n    +payFees(amount: Double)\n}\n\nclass Admin {\n    +adminID: String\n    +name: String\n    +email: String\n    +addStudent(student: Student)\n    +updateStudentInfo(studentID: String)\n    +addCourse(course: Course)\n    +updateCourseInfo(courseID: String)\n    +addDepartment(department: Department)\n    +updateDepartmentInfo(departmentID: String)\n    +assignHeadOfDepartment(departmentID: String, professorID: String)\n}\n\nclass Course {\n    +courseID: String\n    +title: String\n    +description: String\n    +credits: int\n    +schedule: String\n    +location: String\n    +availability: int\n    +addGrade(studentID: String, grade: Grade)\n    +updateGrade(studentID: String, grade: Grade)\n}\n\nclass Grade {\n    +studentID: String\n    +courseID: String\n    +grade: String\n}\n\nclass LibrarySystem {\n    +addBook(book: Book)\n    +updateBookInfo(bookID: String)\n    +borrowBook(studentID: String, bookID: String)\n    +returnBook(studentID: String, bookID: String)\n    +viewAllBooks(): List&lt;Book&gt;\n}\n\nclass Book {\n    +bookID: String\n    +title: String\n    +author: String\n    +status: String\n    +borrowedBy: String\n}\n\nclass Department {\n    +departmentID: String\n    +name: String\n    +head: String\n    +addCourse(course: Course)\n    +updateCourseInfo(courseID: String)\n}\n\nclass FeeSystem {\n    +generateInvoice(studentID: String, amount: Double)\n    +updatePaymentStatus(studentID: String, status: String)\n    +viewFees(studentID: String): List&lt;Fee&gt;\n}\n\nclass Fee {\n    +feeID: String\n    +studentID: String\n    +amount: Double\n    +dueDate: Date\n    +status: String\n}\n\nclass Accountant {\n    +accountantID: String\n    +name: String\n    +email: String\n    +generateInvoice(studentID: String, amount: Double)\n    +updatePaymentStatus(studentID: String, status: String)\n    +viewFees(studentID: String): List&lt;Fee&gt;\n}\n\nStudent \&quot;1\&quot; -- \&quot;*\&quot; Grade\nStudent \&quot;1\&quot; -- \&quot;*\&quot; Course : enrolls\nStudent \&quot;1\&quot; -- \&quot;*\&quot; Book : borrows\nAdmin \&quot;1\&quot; -- \&quot;*\&quot; Student : manages\nAdmin \&quot;1\&quot; -- \&quot;*\&quot; Course : manages\nAdmin \&quot;1\&quot; -- \&quot;*\&quot; Department : manages\nAdmin \&quot;1\&quot; -- \&quot;*\&quot; Fee : manages\nLibrarySystem \&quot;1\&quot; -- \&quot;*\&quot; Book : manages\nDepartment \&quot;1\&quot; -- \&quot;*\&quot; Course : offers\nFeeSystem \&quot;1\&quot; -- \&quot;*\&quot; Fee : generates\nAccountant \&quot;1\&quot; -- \&quot;*\&quot; Fee : manages\n@enduml\n&quot;,&#10;  &quot;format&quot;: &quot;svg&quot;&#10;}" id="4JukISQbr0XyvnMegFth-4">
                    <mxCell style="shape=image;noLabel=1;verticalAlign=top;aspect=fixed;imageAspect=0;image=data:image/svg+xml,PD94bWwgdmVyc2lvbj0iMS4wIiBlbmNvZGluZz0idXMtYXNjaWkiIHN0YW5kYWxvbmU9Im5vIj8+PHN2ZyB4bWxucz0iaHR0cDovL3d3dy53My5vcmcvMjAwMC9zdmciIHhtbG5zOnhsaW5rPSJodHRwOi8vd3d3LnczLm9yZy8xOTk5L3hsaW5rIiBjb250ZW50U3R5bGVUeXBlPSJ0ZXh0L2NzcyIgaGVpZ2h0PSI3MjdweCIgcHJlc2VydmVBc3BlY3RSYXRpbz0ibm9uZSIgc3R5bGU9IndpZHRoOjE5MzlweDtoZWlnaHQ6NzI3cHg7YmFja2dyb3VuZDojRkZGRkZGOyIgdmVyc2lvbj0iMS4xIiB2aWV3Qm94PSIwIDAgMTkzOSA3MjciIHdpZHRoPSIxOTM5cHgiIHpvb21BbmRQYW49Im1hZ25pZnkiPjxkZWZzLz48Zz48IS0tY2xhc3MgU3R1ZGVudC0tPjxnIGlkPSJlbGVtX1N0dWRlbnQiPjxyZWN0IGNvZGVMaW5lPSIxIiBmaWxsPSIjRjFGMUYxIiBoZWlnaHQ9IjE4Mi44NTk0IiBpZD0iU3R1ZGVudCIgcng9IjIuNSIgcnk9IjIuNSIgc3R5bGU9InN0cm9rZTojMTgxODE4O3N0cm9rZS13aWR0aDowLjU7IiB3aWR0aD0iMjUyIiB4PSIzODYiIHk9IjI4MCIvPjxlbGxpcHNlIGN4PSI0ODMuMjUiIGN5PSIyOTYiIGZpbGw9IiNBREQxQjIiIHJ4PSIxMSIgcnk9IjExIiBzdHlsZT0ic3Ryb2tlOiMxODE4MTg7c3Ryb2tlLXdpZHRoOjEuMDsiLz48cGF0aCBkPSJNNDgwLjg3NSwzMDAuMjUgTDQ4MC44NzUsMzAyIEw0ODUuODEyNSwzMDIgTDQ4NS44MTI1LDMwMC4yNSBMNDgwLjg3NSwzMDAuMjUgWiBNNDgxLjU2MjUsMzAwLjkzNzUgUTQ4MS41NjI1LDMwMC45Mzc1IDQ4MS41NjI1LDI5MS43NSBMNDc5LjgxMjUsMjkxLjc1IFE0NzkuODEyNSwyOTEuNzUgNDc5LjgxMjUsMzAwLjkzNzUgTDQ4MS41NjI1LDMwMC45Mzc1IFogTTQ4NS4xMjUsMzAwLjkzNzUgTDQ4Ni44NzUsMzAwLjkzNzUgUTQ4Ni44NzUsMzAwLjkzNzUgNDg2Ljg3NSwyOTguMTI1IEw0ODUuMTI1LDI5OC4xMjUgUTQ4NS4xMjUsMjk4LjEyNSA0ODUuMTI1LDMwMC45Mzc1IFogTTQ4NS4xMjUsMjkxLjc1IFE0ODUuMTI1LDI5MS43NSA0ODUuMTI1LDI5NC41NjI1IEw0ODYuODc1LDI5NC41NjI1IFE0ODYuODc1LDI5NC41NjI1IDQ4Ni44NzUsMjkxLjc1IEw0ODUuMTI1LDI5MS43NSBaIE00ODAuODc1LDI5Mi40Mzc1IEw0ODUuODEyNSwyOTIuNDM3NSBMNDg1LjgxMjUsMjkwLjY4NzUgTDQ4MC44NzUsMjkwLjY4NzUgTDQ4MC44NzUsMjkyLjQzNzUgWiAiIGZpbGw9IiMwMDAwMDAiLz48dGV4dCBmaWxsPSIjMDAwMDAwIiBmb250LWZhbWlseT0ic2Fucy1zZXJpZiIgZm9udC1zaXplPSIxNCIgbGVuZ3RoQWRqdXN0PSJzcGFjaW5nIiB0ZXh0TGVuZ3RoPSI0OSIgeD0iNTAzLjc1IiB5PSIzMDEuNzQyMiI+U3R1ZGVudDwvdGV4dD48bGluZSBzdHlsZT0ic3Ryb2tlOiMxODE4MTg7c3Ryb2tlLXdpZHRoOjAuNTsiIHgxPSIzODciIHgyPSI2MzciIHkxPSIzMTIiIHkyPSIzMTIiLz48ZWxsaXBzZSBjeD0iMzk3IiBjeT0iMzI0Ljk5MjIiIGZpbGw9Im5vbmUiIHJ4PSIzIiByeT0iMyIgc3R5bGU9InN0cm9rZTojMDM4MDQ4O3N0cm9rZS13aWR0aDoxLjA7Ii8+PHRleHQgZmlsbD0iIzAwMDAwMCIgZm9udC1mYW1pbHk9InNhbnMtc2VyaWYiIGZvbnQtc2l6ZT0iMTQiIGxlbmd0aEFkanVzdD0ic3BhY2luZyIgdGV4dExlbmd0aD0iMTE5IiB4PSI0MDYiIHk9IjMyOS4yMzQ0Ij5zdHVkZW50SUQ6IFN0cmluZzwvdGV4dD48ZWxsaXBzZSBjeD0iMzk3IiBjeT0iMzM5Ljk3NjYiIGZpbGw9Im5vbmUiIHJ4PSIzIiByeT0iMyIgc3R5bGU9InN0cm9rZTojMDM4MDQ4O3N0cm9rZS13aWR0aDoxLjA7Ii8+PHRleHQgZmlsbD0iIzAwMDAwMCIgZm9udC1mYW1pbHk9InNhbnMtc2VyaWYiIGZvbnQtc2l6ZT0iMTQiIGxlbmd0aEFkanVzdD0ic3BhY2luZyIgdGV4dExlbmd0aD0iODUiIHg9IjQwNiIgeT0iMzQ0LjIxODgiPm5hbWU6IFN0cmluZzwvdGV4dD48ZWxsaXBzZSBjeD0iMzk3IiBjeT0iMzU0Ljk2MDkiIGZpbGw9Im5vbmUiIHJ4PSIzIiByeT0iMyIgc3R5bGU9InN0cm9rZTojMDM4MDQ4O3N0cm9rZS13aWR0aDoxLjA7Ii8+PHRleHQgZmlsbD0iIzAwMDAwMCIgZm9udC1mYW1pbHk9InNhbnMtc2VyaWYiIGZvbnQtc2l6ZT0iMTQiIGxlbmd0aEFkanVzdD0ic3BhY2luZyIgdGV4dExlbmd0aD0iOTIiIHg9IjQwNiIgeT0iMzU5LjIwMzEiPmVtYWlsOiBTdHJpbmc8L3RleHQ+PGVsbGlwc2UgY3g9IjM5NyIgY3k9IjM2OS45NDUzIiBmaWxsPSJub25lIiByeD0iMyIgcnk9IjMiIHN0eWxlPSJzdHJva2U6IzAzODA0ODtzdHJva2Utd2lkdGg6MS4wOyIvPjx0ZXh0IGZpbGw9IiMwMDAwMDAiIGZvbnQtZmFtaWx5PSJzYW5zLXNlcmlmIiBmb250LXNpemU9IjE0IiBsZW5ndGhBZGp1c3Q9InNwYWNpbmciIHRleHRMZW5ndGg9IjkxIiB4PSI0MDYiIHk9IjM3NC4xODc1Ij5waG9uZTogU3RyaW5nPC90ZXh0PjxlbGxpcHNlIGN4PSIzOTciIGN5PSIzODQuOTI5NyIgZmlsbD0ibm9uZSIgcng9IjMiIHJ5PSIzIiBzdHlsZT0ic3Ryb2tlOiMwMzgwNDg7c3Ryb2tlLXdpZHRoOjEuMDsiLz48dGV4dCBmaWxsPSIjMDAwMDAwIiBmb250LWZhbWlseT0ic2Fucy1zZXJpZiIgZm9udC1zaXplPSIxNCIgbGVuZ3RoQWRqdXN0PSJzcGFjaW5nIiB0ZXh0TGVuZ3RoPSIxMDUiIHg9IjQwNiIgeT0iMzg5LjE3MTkiPmFkZHJlc3M6IFN0cmluZzwvdGV4dD48bGluZSBzdHlsZT0ic3Ryb2tlOiMxODE4MTg7c3Ryb2tlLXdpZHRoOjAuNTsiIHgxPSIzODciIHgyPSI2MzciIHkxPSIzOTQuOTIxOSIgeTI9IjM5NC45MjE5Ii8+PGVsbGlwc2UgY3g9IjM5NyIgY3k9IjQwNy45MTQxIiBmaWxsPSIjODRCRTg0IiByeD0iMyIgcnk9IjMiIHN0eWxlPSJzdHJva2U6IzAzODA0ODtzdHJva2Utd2lkdGg6MS4wOyIvPjx0ZXh0IGZpbGw9IiMwMDAwMDAiIGZvbnQtZmFtaWx5PSJzYW5zLXNlcmlmIiBmb250LXNpemU9IjE0IiBsZW5ndGhBZGp1c3Q9InNwYWNpbmciIHRleHRMZW5ndGg9Ijg2IiB4PSI0MDYiIHk9IjQxMi4xNTYzIj51cGRhdGVJbmZvKCk8L3RleHQ+PGVsbGlwc2UgY3g9IjM5NyIgY3k9IjQyMi44OTg0IiBmaWxsPSIjODRCRTg0IiByeD0iMyIgcnk9IjMiIHN0eWxlPSJzdHJva2U6IzAzODA0ODtzdHJva2Utd2lkdGg6MS4wOyIvPjx0ZXh0IGZpbGw9IiMwMDAwMDAiIGZvbnQtZmFtaWx5PSJzYW5zLXNlcmlmIiBmb250LXNpemU9IjE0IiBsZW5ndGhBZGp1c3Q9InNwYWNpbmciIHRleHRMZW5ndGg9IjIyNiIgeD0iNDA2IiB5PSI0MjcuMTQwNiI+cmVnaXN0ZXJDb3Vyc2UoY291cnNlSUQ6IFN0cmluZyk8L3RleHQ+PGVsbGlwc2UgY3g9IjM5NyIgY3k9IjQzNy44ODI4IiBmaWxsPSIjODRCRTg0IiByeD0iMyIgcnk9IjMiIHN0eWxlPSJzdHJva2U6IzAzODA0ODtzdHJva2Utd2lkdGg6MS4wOyIvPjx0ZXh0IGZpbGw9IiMwMDAwMDAiIGZvbnQtZmFtaWx5PSJzYW5zLXNlcmlmIiBmb250LXNpemU9IjE0IiBsZW5ndGhBZGp1c3Q9InNwYWNpbmciIHRleHRMZW5ndGg9IjE3OCIgeD0iNDA2IiB5PSI0NDIuMTI1Ij52aWV3R3JhZGVzKCk6IExpc3QmbHQ7R3JhZGUmZ3Q7PC90ZXh0PjxlbGxpcHNlIGN4PSIzOTciIGN5PSI0NTIuODY3MiIgZmlsbD0iIzg0QkU4NCIgcng9IjMiIHJ5PSIzIiBzdHlsZT0ic3Ryb2tlOiMwMzgwNDg7c3Ryb2tlLXdpZHRoOjEuMDsiLz48dGV4dCBmaWxsPSIjMDAwMDAwIiBmb250LWZhbWlseT0ic2Fucy1zZXJpZiIgZm9udC1zaXplPSIxNCIgbGVuZ3RoQWRqdXN0PSJzcGFjaW5nIiB0ZXh0TGVuZ3RoPSIxNjQiIHg9IjQwNiIgeT0iNDU3LjEwOTQiPnBheUZlZXMoYW1vdW50OiBEb3VibGUpPC90ZXh0PjwvZz48IS0tY2xhc3MgQWRtaW4tLT48ZyBpZD0iZWxlbV9BZG1pbiI+PHJlY3QgY29kZUxpbmU9IjEzIiBmaWxsPSIjRjFGMUYxIiBoZWlnaHQ9IjE5Ny44NDM4IiBpZD0iQWRtaW4iIHJ4PSIyLjUiIHJ5PSIyLjUiIHN0eWxlPSJzdHJva2U6IzE4MTgxODtzdHJva2Utd2lkdGg6MC41OyIgd2lkdGg9IjQ4NSIgeD0iNTYzLjUiIHk9IjciLz48ZWxsaXBzZSBjeD0iNzgzLjc1IiBjeT0iMjMiIGZpbGw9IiNBREQxQjIiIHJ4PSIxMSIgcnk9IjExIiBzdHlsZT0ic3Ryb2tlOiMxODE4MTg7c3Ryb2tlLXdpZHRoOjEuMDsiLz48cGF0aCBkPSJNNzgxLjM3NSwyNy4yNSBMNzgxLjM3NSwyOSBMNzg2LjMxMjUsMjkgTDc4Ni4zMTI1LDI3LjI1IEw3ODEuMzc1LDI3LjI1IFogTTc4Mi4wNjI1LDI3LjkzNzUgUTc4Mi4wNjI1LDI3LjkzNzUgNzgyLjA2MjUsMTguNzUgTDc4MC4zMTI1LDE4Ljc1IFE3ODAuMzEyNSwxOC43NSA3ODAuMzEyNSwyNy45Mzc1IEw3ODIuMDYyNSwyNy45Mzc1IFogTTc4NS42MjUsMjcuOTM3NSBMNzg3LjM3NSwyNy45Mzc1IFE3ODcuMzc1LDI3LjkzNzUgNzg3LjM3NSwyNS4xMjUgTDc4NS42MjUsMjUuMTI1IFE3ODUuNjI1LDI1LjEyNSA3ODUuNjI1LDI3LjkzNzUgWiBNNzg1LjYyNSwxOC43NSBRNzg1LjYyNSwxOC43NSA3ODUuNjI1LDIxLjU2MjUgTDc4Ny4zNzUsMjEuNTYyNSBRNzg3LjM3NSwyMS41NjI1IDc4Ny4zNzUsMTguNzUgTDc4NS42MjUsMTguNzUgWiBNNzgxLjM3NSwxOS40Mzc1IEw3ODYuMzEyNSwxOS40Mzc1IEw3ODYuMzEyNSwxNy42ODc1IEw3ODEuMzc1LDE3LjY4NzUgTDc4MS4zNzUsMTkuNDM3NSBaICIgZmlsbD0iIzAwMDAwMCIvPjx0ZXh0IGZpbGw9IiMwMDAwMDAiIGZvbnQtZmFtaWx5PSJzYW5zLXNlcmlmIiBmb250LXNpemU9IjE0IiBsZW5ndGhBZGp1c3Q9InNwYWNpbmciIHRleHRMZW5ndGg9IjM2IiB4PSI4MDQuMjUiIHk9IjI4Ljc0MjIiPkFkbWluPC90ZXh0PjxsaW5lIHN0eWxlPSJzdHJva2U6IzE4MTgxODtzdHJva2Utd2lkdGg6MC41OyIgeDE9IjU2NC41IiB4Mj0iMTA0Ny41IiB5MT0iMzkiIHkyPSIzOSIvPjxlbGxpcHNlIGN4PSI1NzQuNSIgY3k9IjUxLjk5MjIiIGZpbGw9Im5vbmUiIHJ4PSIzIiByeT0iMyIgc3R5bGU9InN0cm9rZTojMDM4MDQ4O3N0cm9rZS13aWR0aDoxLjA7Ii8+PHRleHQgZmlsbD0iIzAwMDAwMCIgZm9udC1mYW1pbHk9InNhbnMtc2VyaWYiIGZvbnQtc2l6ZT0iMTQiIGxlbmd0aEFkanVzdD0ic3BhY2luZyIgdGV4dExlbmd0aD0iMTA2IiB4PSI1ODMuNSIgeT0iNTYuMjM0NCI+YWRtaW5JRDogU3RyaW5nPC90ZXh0PjxlbGxpcHNlIGN4PSI1NzQuNSIgY3k9IjY2Ljk3NjYiIGZpbGw9Im5vbmUiIHJ4PSIzIiByeT0iMyIgc3R5bGU9InN0cm9rZTojMDM4MDQ4O3N0cm9rZS13aWR0aDoxLjA7Ii8+PHRleHQgZmlsbD0iIzAwMDAwMCIgZm9udC1mYW1pbHk9InNhbnMtc2VyaWYiIGZvbnQtc2l6ZT0iMTQiIGxlbmd0aEFkanVzdD0ic3BhY2luZyIgdGV4dExlbmd0aD0iODUiIHg9IjU4My41IiB5PSI3MS4yMTg4Ij5uYW1lOiBTdHJpbmc8L3RleHQ+PGVsbGlwc2UgY3g9IjU3NC41IiBjeT0iODEuOTYwOSIgZmlsbD0ibm9uZSIgcng9IjMiIHJ5PSIzIiBzdHlsZT0ic3Ryb2tlOiMwMzgwNDg7c3Ryb2tlLXdpZHRoOjEuMDsiLz48dGV4dCBmaWxsPSIjMDAwMDAwIiBmb250LWZhbWlseT0ic2Fucy1zZXJpZiIgZm9udC1zaXplPSIxNCIgbGVuZ3RoQWRqdXN0PSJzcGFjaW5nIiB0ZXh0TGVuZ3RoPSI5MiIgeD0iNTgzLjUiIHk9Ijg2LjIwMzEiPmVtYWlsOiBTdHJpbmc8L3RleHQ+PGxpbmUgc3R5bGU9InN0cm9rZTojMTgxODE4O3N0cm9rZS13aWR0aDowLjU7IiB4MT0iNTY0LjUiIHgyPSIxMDQ3LjUiIHkxPSI5MS45NTMxIiB5Mj0iOTEuOTUzMSIvPjxlbGxpcHNlIGN4PSI1NzQuNSIgY3k9IjEwNC45NDUzIiBmaWxsPSIjODRCRTg0IiByeD0iMyIgcnk9IjMiIHN0eWxlPSJzdHJva2U6IzAzODA0ODtzdHJva2Utd2lkdGg6MS4wOyIvPjx0ZXh0IGZpbGw9IiMwMDAwMDAiIGZvbnQtZmFtaWx5PSJzYW5zLXNlcmlmIiBmb250LXNpemU9IjE0IiBsZW5ndGhBZGp1c3Q9InNwYWNpbmciIHRleHRMZW5ndGg9IjE5OCIgeD0iNTgzLjUiIHk9IjEwOS4xODc1Ij5hZGRTdHVkZW50KHN0dWRlbnQ6IFN0dWRlbnQpPC90ZXh0PjxlbGxpcHNlIGN4PSI1NzQuNSIgY3k9IjExOS45Mjk3IiBmaWxsPSIjODRCRTg0IiByeD0iMyIgcnk9IjMiIHN0eWxlPSJzdHJva2U6IzAzODA0ODtzdHJva2Utd2lkdGg6MS4wOyIvPjx0ZXh0IGZpbGw9IiMwMDAwMDAiIGZvbnQtZmFtaWx5PSJzYW5zLXNlcmlmIiBmb250LXNpemU9IjE0IiBsZW5ndGhBZGp1c3Q9InNwYWNpbmciIHRleHRMZW5ndGg9IjI1NCIgeD0iNTgzLjUiIHk9IjEyNC4xNzE5Ij51cGRhdGVTdHVkZW50SW5mbyhzdHVkZW50SUQ6IFN0cmluZyk8L3RleHQ+PGVsbGlwc2UgY3g9IjU3NC41IiBjeT0iMTM0LjkxNDEiIGZpbGw9IiM4NEJFODQiIHJ4PSIzIiByeT0iMyIgc3R5bGU9InN0cm9rZTojMDM4MDQ4O3N0cm9rZS13aWR0aDoxLjA7Ii8+PHRleHQgZmlsbD0iIzAwMDAwMCIgZm9udC1mYW1pbHk9InNhbnMtc2VyaWYiIGZvbnQtc2l6ZT0iMTQiIGxlbmd0aEFkanVzdD0ic3BhY2luZyIgdGV4dExlbmd0aD0iMTc3IiB4PSI1ODMuNSIgeT0iMTM5LjE1NjMiPmFkZENvdXJzZShjb3Vyc2U6IENvdXJzZSk8L3RleHQ+PGVsbGlwc2UgY3g9IjU3NC41IiBjeT0iMTQ5Ljg5ODQiIGZpbGw9IiM4NEJFODQiIHJ4PSIzIiByeT0iMyIgc3R5bGU9InN0cm9rZTojMDM4MDQ4O3N0cm9rZS13aWR0aDoxLjA7Ii8+PHRleHQgZmlsbD0iIzAwMDAwMCIgZm9udC1mYW1pbHk9InNhbnMtc2VyaWYiIGZvbnQtc2l6ZT0iMTQiIGxlbmd0aEFkanVzdD0ic3BhY2luZyIgdGV4dExlbmd0aD0iMjQwIiB4PSI1ODMuNSIgeT0iMTU0LjE0MDYiPnVwZGF0ZUNvdXJzZUluZm8oY291cnNlSUQ6IFN0cmluZyk8L3RleHQ+PGVsbGlwc2UgY3g9IjU3NC41IiBjeT0iMTY0Ljg4MjgiIGZpbGw9IiM4NEJFODQiIHJ4PSIzIiByeT0iMyIgc3R5bGU9InN0cm9rZTojMDM4MDQ4O3N0cm9rZS13aWR0aDoxLjA7Ii8+PHRleHQgZmlsbD0iIzAwMDAwMCIgZm9udC1mYW1pbHk9InNhbnMtc2VyaWYiIGZvbnQtc2l6ZT0iMTQiIGxlbmd0aEFkanVzdD0ic3BhY2luZyIgdGV4dExlbmd0aD0iMjY0IiB4PSI1ODMuNSIgeT0iMTY5LjEyNSI+YWRkRGVwYXJ0bWVudChkZXBhcnRtZW50OiBEZXBhcnRtZW50KTwvdGV4dD48ZWxsaXBzZSBjeD0iNTc0LjUiIGN5PSIxNzkuODY3MiIgZmlsbD0iIzg0QkU4NCIgcng9IjMiIHJ5PSIzIiBzdHlsZT0ic3Ryb2tlOiMwMzgwNDg7c3Ryb2tlLXdpZHRoOjEuMDsiLz48dGV4dCBmaWxsPSIjMDAwMDAwIiBmb250LWZhbWlseT0ic2Fucy1zZXJpZiIgZm9udC1zaXplPSIxNCIgbGVuZ3RoQWRqdXN0PSJzcGFjaW5nIiB0ZXh0TGVuZ3RoPSIyOTgiIHg9IjU4My41IiB5PSIxODQuMTA5NCI+dXBkYXRlRGVwYXJ0bWVudEluZm8oZGVwYXJ0bWVudElEOiBTdHJpbmcpPC90ZXh0PjxlbGxpcHNlIGN4PSI1NzQuNSIgY3k9IjE5NC44NTE2IiBmaWxsPSIjODRCRTg0IiByeD0iMyIgcnk9IjMiIHN0eWxlPSJzdHJva2U6IzAzODA0ODtzdHJva2Utd2lkdGg6MS4wOyIvPjx0ZXh0IGZpbGw9IiMwMDAwMDAiIGZvbnQtZmFtaWx5PSJzYW5zLXNlcmlmIiBmb250LXNpemU9IjE0IiBsZW5ndGhBZGp1c3Q9InNwYWNpbmciIHRleHRMZW5ndGg9IjQ1OSIgeD0iNTgzLjUiIHk9IjE5OS4wOTM4Ij5hc3NpZ25IZWFkT2ZEZXBhcnRtZW50KGRlcGFydG1lbnRJRDogU3RyaW5nLCBwcm9mZXNzb3JJRDogU3RyaW5nKTwvdGV4dD48L2c+PCEtLWNsYXNzIENvdXJzZS0tPjxnIGlkPSJlbGVtX0NvdXJzZSI+PHJlY3QgY29kZUxpbmU9IjI2IiBmaWxsPSIjRjFGMUYxIiBoZWlnaHQ9IjE4Mi44NTk0IiBpZD0iQ291cnNlIiByeD0iMi41IiByeT0iMi41IiBzdHlsZT0ic3Ryb2tlOiMxODE4MTg7c3Ryb2tlLXdpZHRoOjAuNTsiIHdpZHRoPSIzMzYiIHg9IjYzOCIgeT0iNTM4Ii8+PGVsbGlwc2UgY3g9Ijc4MC43NSIgY3k9IjU1NCIgZmlsbD0iI0FERDFCMiIgcng9IjExIiByeT0iMTEiIHN0eWxlPSJzdHJva2U6IzE4MTgxODtzdHJva2Utd2lkdGg6MS4wOyIvPjxwYXRoIGQ9Ik03NzguMzc1LDU1OC4yNSBMNzc4LjM3NSw1NjAgTDc4My4zMTI1LDU2MCBMNzgzLjMxMjUsNTU4LjI1IEw3NzguMzc1LDU1OC4yNSBaIE03NzkuMDYyNSw1NTguOTM3NSBRNzc5LjA2MjUsNTU4LjkzNzUgNzc5LjA2MjUsNTQ5Ljc1IEw3NzcuMzEyNSw1NDkuNzUgUTc3Ny4zMTI1LDU0OS43NSA3NzcuMzEyNSw1NTguOTM3NSBMNzc5LjA2MjUsNTU4LjkzNzUgWiBNNzgyLjYyNSw1NTguOTM3NSBMNzg0LjM3NSw1NTguOTM3NSBRNzg0LjM3NSw1NTguOTM3NSA3ODQuMzc1LDU1Ni4xMjUgTDc4Mi42MjUsNTU2LjEyNSBRNzgyLjYyNSw1NTYuMTI1IDc4Mi42MjUsNTU4LjkzNzUgWiBNNzgyLjYyNSw1NDkuNzUgUTc4Mi42MjUsNTQ5Ljc1IDc4Mi42MjUsNTUyLjU2MjUgTDc4NC4zNzUsNTUyLjU2MjUgUTc4NC4zNzUsNTUyLjU2MjUgNzg0LjM3NSw1NDkuNzUgTDc4Mi42MjUsNTQ5Ljc1IFogTTc3OC4zNzUsNTUwLjQzNzUgTDc4My4zMTI1LDU1MC40Mzc1IEw3ODMuMzEyNSw1NDguNjg3NSBMNzc4LjM3NSw1NDguNjg3NSBMNzc4LjM3NSw1NTAuNDM3NSBaICIgZmlsbD0iIzAwMDAwMCIvPjx0ZXh0IGZpbGw9IiMwMDAwMDAiIGZvbnQtZmFtaWx5PSJzYW5zLXNlcmlmIiBmb250LXNpemU9IjE0IiBsZW5ndGhBZGp1c3Q9InNwYWNpbmciIHRleHRMZW5ndGg9IjQyIiB4PSI4MDEuMjUiIHk9IjU1OS43NDIyIj5Db3Vyc2U8L3RleHQ+PGxpbmUgc3R5bGU9InN0cm9rZTojMTgxODE4O3N0cm9rZS13aWR0aDowLjU7IiB4MT0iNjM5IiB4Mj0iOTczIiB5MT0iNTcwIiB5Mj0iNTcwIi8+PGVsbGlwc2UgY3g9IjY0OSIgY3k9IjU4Mi45OTIyIiBmaWxsPSJub25lIiByeD0iMyIgcnk9IjMiIHN0eWxlPSJzdHJva2U6IzAzODA0ODtzdHJva2Utd2lkdGg6MS4wOyIvPjx0ZXh0IGZpbGw9IiMwMDAwMDAiIGZvbnQtZmFtaWx5PSJzYW5zLXNlcmlmIiBmb250LXNpemU9IjE0IiBsZW5ndGhBZGp1c3Q9InNwYWNpbmciIHRleHRMZW5ndGg9IjExMiIgeD0iNjU4IiB5PSI1ODcuMjM0NCI+Y291cnNlSUQ6IFN0cmluZzwvdGV4dD48ZWxsaXBzZSBjeD0iNjQ5IiBjeT0iNTk3Ljk3NjYiIGZpbGw9Im5vbmUiIHJ4PSIzIiByeT0iMyIgc3R5bGU9InN0cm9rZTojMDM4MDQ4O3N0cm9rZS13aWR0aDoxLjA7Ii8+PHRleHQgZmlsbD0iIzAwMDAwMCIgZm9udC1mYW1pbHk9InNhbnMtc2VyaWYiIGZvbnQtc2l6ZT0iMTQiIGxlbmd0aEFkanVzdD0ic3BhY2luZyIgdGV4dExlbmd0aD0iOTEiIHg9IjY1OCIgeT0iNjAyLjIxODgiPnRpdGxlOiBTdHJpbmc8L3RleHQ+PGVsbGlwc2UgY3g9IjY0OSIgY3k9IjYxMi45NjA5IiBmaWxsPSJub25lIiByeD0iMyIgcnk9IjMiIHN0eWxlPSJzdHJva2U6IzAzODA0ODtzdHJva2Utd2lkdGg6MS4wOyIvPjx0ZXh0IGZpbGw9IiMwMDAwMDAiIGZvbnQtZmFtaWx5PSJzYW5zLXNlcmlmIiBmb250LXNpemU9IjE0IiBsZW5ndGhBZGp1c3Q9InNwYWNpbmciIHRleHRMZW5ndGg9IjEzMyIgeD0iNjU4IiB5PSI2MTcuMjAzMSI+ZGVzY3JpcHRpb246IFN0cmluZzwvdGV4dD48ZWxsaXBzZSBjeD0iNjQ5IiBjeT0iNjI3Ljk0NTMiIGZpbGw9Im5vbmUiIHJ4PSIzIiByeT0iMyIgc3R5bGU9InN0cm9rZTojMDM4MDQ4O3N0cm9rZS13aWR0aDoxLjA7Ii8+PHRleHQgZmlsbD0iIzAwMDAwMCIgZm9udC1mYW1pbHk9InNhbnMtc2VyaWYiIGZvbnQtc2l6ZT0iMTQiIGxlbmd0aEFkanVzdD0ic3BhY2luZyIgdGV4dExlbmd0aD0iODQiIHg9IjY1OCIgeT0iNjMyLjE4NzUiPmNyZWRpdHM6IGludDwvdGV4dD48ZWxsaXBzZSBjeD0iNjQ5IiBjeT0iNjQyLjkyOTciIGZpbGw9Im5vbmUiIHJ4PSIzIiByeT0iMyIgc3R5bGU9InN0cm9rZTojMDM4MDQ4O3N0cm9rZS13aWR0aDoxLjA7Ii8+PHRleHQgZmlsbD0iIzAwMDAwMCIgZm9udC1mYW1pbHk9InNhbnMtc2VyaWYiIGZvbnQtc2l6ZT0iMTQiIGxlbmd0aEFkanVzdD0ic3BhY2luZyIgdGV4dExlbmd0aD0iMTEyIiB4PSI2NTgiIHk9IjY0Ny4xNzE5Ij5zY2hlZHVsZTogU3RyaW5nPC90ZXh0PjxlbGxpcHNlIGN4PSI2NDkiIGN5PSI2NTcuOTE0MSIgZmlsbD0ibm9uZSIgcng9IjMiIHJ5PSIzIiBzdHlsZT0ic3Ryb2tlOiMwMzgwNDg7c3Ryb2tlLXdpZHRoOjEuMDsiLz48dGV4dCBmaWxsPSIjMDAwMDAwIiBmb250LWZhbWlseT0ic2Fucy1zZXJpZiIgZm9udC1zaXplPSIxNCIgbGVuZ3RoQWRqdXN0PSJzcGFjaW5nIiB0ZXh0TGVuZ3RoPSIxMTIiIHg9IjY1OCIgeT0iNjYyLjE1NjMiPmxvY2F0aW9uOiBTdHJpbmc8L3RleHQ+PGVsbGlwc2UgY3g9IjY0OSIgY3k9IjY3Mi44OTg0IiBmaWxsPSJub25lIiByeD0iMyIgcnk9IjMiIHN0eWxlPSJzdHJva2U6IzAzODA0ODtzdHJva2Utd2lkdGg6MS4wOyIvPjx0ZXh0IGZpbGw9IiMwMDAwMDAiIGZvbnQtZmFtaWx5PSJzYW5zLXNlcmlmIiBmb250LXNpemU9IjE0IiBsZW5ndGhBZGp1c3Q9InNwYWNpbmciIHRleHRMZW5ndGg9IjExOSIgeD0iNjU4IiB5PSI2NzcuMTQwNiI+YXZhaWxhYmlsaXR5OiBpbnQ8L3RleHQ+PGxpbmUgc3R5bGU9InN0cm9rZTojMTgxODE4O3N0cm9rZS13aWR0aDowLjU7IiB4MT0iNjM5IiB4Mj0iOTczIiB5MT0iNjgyLjg5MDYiIHkyPSI2ODIuODkwNiIvPjxlbGxpcHNlIGN4PSI2NDkiIGN5PSI2OTUuODgyOCIgZmlsbD0iIzg0QkU4NCIgcng9IjMiIHJ5PSIzIiBzdHlsZT0ic3Ryb2tlOiMwMzgwNDg7c3Ryb2tlLXdpZHRoOjEuMDsiLz48dGV4dCBmaWxsPSIjMDAwMDAwIiBmb250LWZhbWlseT0ic2Fucy1zZXJpZiIgZm9udC1zaXplPSIxNCIgbGVuZ3RoQWRqdXN0PSJzcGFjaW5nIiB0ZXh0TGVuZ3RoPSIyODkiIHg9IjY1OCIgeT0iNzAwLjEyNSI+YWRkR3JhZGUoc3R1ZGVudElEOiBTdHJpbmcsIGdyYWRlOiBHcmFkZSk8L3RleHQ+PGVsbGlwc2UgY3g9IjY0OSIgY3k9IjcxMC44NjcyIiBmaWxsPSIjODRCRTg0IiByeD0iMyIgcnk9IjMiIHN0eWxlPSJzdHJva2U6IzAzODA0ODtzdHJva2Utd2lkdGg6MS4wOyIvPjx0ZXh0IGZpbGw9IiMwMDAwMDAiIGZvbnQtZmFtaWx5PSJzYW5zLXNlcmlmIiBmb250LXNpemU9IjE0IiBsZW5ndGhBZGp1c3Q9InNwYWNpbmciIHRleHRMZW5ndGg9IjMxMCIgeD0iNjU4IiB5PSI3MTUuMTA5NCI+dXBkYXRlR3JhZGUoc3R1ZGVudElEOiBTdHJpbmcsIGdyYWRlOiBHcmFkZSk8L3RleHQ+PC9nPjwhLS1jbGFzcyBHcmFkZS0tPjxnIGlkPSJlbGVtX0dyYWRlIj48cmVjdCBjb2RlTGluZT0iMzgiIGZpbGw9IiNGMUYxRjEiIGhlaWdodD0iOTIuOTUzMSIgaWQ9IkdyYWRlIiByeD0iMi41IiByeT0iMi41IiBzdHlsZT0ic3Ryb2tlOiMxODE4MTg7c3Ryb2tlLXdpZHRoOjAuNTsiIHdpZHRoPSIxNDUiIHg9IjQzOS41IiB5PSI1ODMiLz48ZWxsaXBzZSBjeD0iNDkwLjI1IiBjeT0iNTk5IiBmaWxsPSIjQUREMUIyIiByeD0iMTEiIHJ5PSIxMSIgc3R5bGU9InN0cm9rZTojMTgxODE4O3N0cm9rZS13aWR0aDoxLjA7Ii8+PHBhdGggZD0iTTQ4Ny44NzUsNjAzLjI1IEw0ODcuODc1LDYwNSBMNDkyLjgxMjUsNjA1IEw0OTIuODEyNSw2MDMuMjUgTDQ4Ny44NzUsNjAzLjI1IFogTTQ4OC41NjI1LDYwMy45Mzc1IFE0ODguNTYyNSw2MDMuOTM3NSA0ODguNTYyNSw1OTQuNzUgTDQ4Ni44MTI1LDU5NC43NSBRNDg2LjgxMjUsNTk0Ljc1IDQ4Ni44MTI1LDYwMy45Mzc1IEw0ODguNTYyNSw2MDMuOTM3NSBaIE00OTIuMTI1LDYwMy45Mzc1IEw0OTMuODc1LDYwMy45Mzc1IFE0OTMuODc1LDYwMy45Mzc1IDQ5My44NzUsNjAxLjEyNSBMNDkyLjEyNSw2MDEuMTI1IFE0OTIuMTI1LDYwMS4xMjUgNDkyLjEyNSw2MDMuOTM3NSBaIE00OTIuMTI1LDU5NC43NSBRNDkyLjEyNSw1OTQuNzUgNDkyLjEyNSw1OTcuNTYyNSBMNDkzLjg3NSw1OTcuNTYyNSBRNDkzLjg3NSw1OTcuNTYyNSA0OTMuODc1LDU5NC43NSBMNDkyLjEyNSw1OTQuNzUgWiBNNDg3Ljg3NSw1OTUuNDM3NSBMNDkyLjgxMjUsNTk1LjQzNzUgTDQ5Mi44MTI1LDU5My42ODc1IEw0ODcuODc1LDU5My42ODc1IEw0ODcuODc1LDU5NS40Mzc1IFogIiBmaWxsPSIjMDAwMDAwIi8+PHRleHQgZmlsbD0iIzAwMDAwMCIgZm9udC1mYW1pbHk9InNhbnMtc2VyaWYiIGZvbnQtc2l6ZT0iMTQiIGxlbmd0aEFkanVzdD0ic3BhY2luZyIgdGV4dExlbmd0aD0iMzUiIHg9IjUxMC43NSIgeT0iNjA0Ljc0MjIiPkdyYWRlPC90ZXh0PjxsaW5lIHN0eWxlPSJzdHJva2U6IzE4MTgxODtzdHJva2Utd2lkdGg6MC41OyIgeDE9IjQ0MC41IiB4Mj0iNTgzLjUiIHkxPSI2MTUiIHkyPSI2MTUiLz48ZWxsaXBzZSBjeD0iNDUwLjUiIGN5PSI2MjcuOTkyMiIgZmlsbD0ibm9uZSIgcng9IjMiIHJ5PSIzIiBzdHlsZT0ic3Ryb2tlOiMwMzgwNDg7c3Ryb2tlLXdpZHRoOjEuMDsiLz48dGV4dCBmaWxsPSIjMDAwMDAwIiBmb250LWZhbWlseT0ic2Fucy1zZXJpZiIgZm9udC1zaXplPSIxNCIgbGVuZ3RoQWRqdXN0PSJzcGFjaW5nIiB0ZXh0TGVuZ3RoPSIxMTkiIHg9IjQ1OS41IiB5PSI2MzIuMjM0NCI+c3R1ZGVudElEOiBTdHJpbmc8L3RleHQ+PGVsbGlwc2UgY3g9IjQ1MC41IiBjeT0iNjQyLjk3NjYiIGZpbGw9Im5vbmUiIHJ4PSIzIiByeT0iMyIgc3R5bGU9InN0cm9rZTojMDM4MDQ4O3N0cm9rZS13aWR0aDoxLjA7Ii8+PHRleHQgZmlsbD0iIzAwMDAwMCIgZm9udC1mYW1pbHk9InNhbnMtc2VyaWYiIGZvbnQtc2l6ZT0iMTQiIGxlbmd0aEFkanVzdD0ic3BhY2luZyIgdGV4dExlbmd0aD0iMTEyIiB4PSI0NTkuNSIgeT0iNjQ3LjIxODgiPmNvdXJzZUlEOiBTdHJpbmc8L3RleHQ+PGVsbGlwc2UgY3g9IjQ1MC41IiBjeT0iNjU3Ljk2MDkiIGZpbGw9Im5vbmUiIHJ4PSIzIiByeT0iMyIgc3R5bGU9InN0cm9rZTojMDM4MDQ4O3N0cm9rZS13aWR0aDoxLjA7Ii8+PHRleHQgZmlsbD0iIzAwMDAwMCIgZm9udC1mYW1pbHk9InNhbnMtc2VyaWYiIGZvbnQtc2l6ZT0iMTQiIGxlbmd0aEFkanVzdD0ic3BhY2luZyIgdGV4dExlbmd0aD0iOTEiIHg9IjQ1OS41IiB5PSI2NjIuMjAzMSI+Z3JhZGU6IFN0cmluZzwvdGV4dD48bGluZSBzdHlsZT0ic3Ryb2tlOiMxODE4MTg7c3Ryb2tlLXdpZHRoOjAuNTsiIHgxPSI0NDAuNSIgeDI9IjU4My41IiB5MT0iNjY3Ljk1MzEiIHkyPSI2NjcuOTUzMSIvPjwvZz48IS0tY2xhc3MgTGlicmFyeVN5c3RlbS0tPjxnIGlkPSJlbGVtX0xpYnJhcnlTeXN0ZW0iPjxyZWN0IGNvZGVMaW5lPSI0NCIgZmlsbD0iI0YxRjFGMSIgaGVpZ2h0PSIxMjIuOTIxOSIgaWQ9IkxpYnJhcnlTeXN0ZW0iIHJ4PSIyLjUiIHJ5PSIyLjUiIHN0eWxlPSJzdHJva2U6IzE4MTgxODtzdHJva2Utd2lkdGg6MC41OyIgd2lkdGg9IjM0NCIgeD0iNyIgeT0iMzEwIi8+PGVsbGlwc2UgY3g9IjEyOC43NSIgY3k9IjMyNiIgZmlsbD0iI0FERDFCMiIgcng9IjExIiByeT0iMTEiIHN0eWxlPSJzdHJva2U6IzE4MTgxODtzdHJva2Utd2lkdGg6MS4wOyIvPjxwYXRoIGQ9Ik0xMjYuMzc1LDMzMC4yNSBMMTI2LjM3NSwzMzIgTDEzMS4zMTI1LDMzMiBMMTMxLjMxMjUsMzMwLjI1IEwxMjYuMzc1LDMzMC4yNSBaIE0xMjcuMDYyNSwzMzAuOTM3NSBRMTI3LjA2MjUsMzMwLjkzNzUgMTI3LjA2MjUsMzIxLjc1IEwxMjUuMzEyNSwzMjEuNzUgUTEyNS4zMTI1LDMyMS43NSAxMjUuMzEyNSwzMzAuOTM3NSBMMTI3LjA2MjUsMzMwLjkzNzUgWiBNMTMwLjYyNSwzMzAuOTM3NSBMMTMyLjM3NSwzMzAuOTM3NSBRMTMyLjM3NSwzMzAuOTM3NSAxMzIuMzc1LDMyOC4xMjUgTDEzMC42MjUsMzI4LjEyNSBRMTMwLjYyNSwzMjguMTI1IDEzMC42MjUsMzMwLjkzNzUgWiBNMTMwLjYyNSwzMjEuNzUgUTEzMC42MjUsMzIxLjc1IDEzMC42MjUsMzI0LjU2MjUgTDEzMi4zNzUsMzI0LjU2MjUgUTEzMi4zNzUsMzI0LjU2MjUgMTMyLjM3NSwzMjEuNzUgTDEzMC42MjUsMzIxLjc1IFogTTEyNi4zNzUsMzIyLjQzNzUgTDEzMS4zMTI1LDMyMi40Mzc1IEwxMzEuMzEyNSwzMjAuNjg3NSBMMTI2LjM3NSwzMjAuNjg3NSBMMTI2LjM3NSwzMjIuNDM3NSBaICIgZmlsbD0iIzAwMDAwMCIvPjx0ZXh0IGZpbGw9IiMwMDAwMDAiIGZvbnQtZmFtaWx5PSJzYW5zLXNlcmlmIiBmb250LXNpemU9IjE0IiBsZW5ndGhBZGp1c3Q9InNwYWNpbmciIHRleHRMZW5ndGg9IjkyIiB4PSIxNDkuMjUiIHk9IjMzMS43NDIyIj5MaWJyYXJ5U3lzdGVtPC90ZXh0PjxsaW5lIHN0eWxlPSJzdHJva2U6IzE4MTgxODtzdHJva2Utd2lkdGg6MC41OyIgeDE9IjgiIHgyPSIzNTAiIHkxPSIzNDIiIHkyPSIzNDIiLz48bGluZSBzdHlsZT0ic3Ryb2tlOiMxODE4MTg7c3Ryb2tlLXdpZHRoOjAuNTsiIHgxPSI4IiB4Mj0iMzUwIiB5MT0iMzUwIiB5Mj0iMzUwIi8+PGVsbGlwc2UgY3g9IjE4IiBjeT0iMzYyLjk5MjIiIGZpbGw9IiM4NEJFODQiIHJ4PSIzIiByeT0iMyIgc3R5bGU9InN0cm9rZTojMDM4MDQ4O3N0cm9rZS13aWR0aDoxLjA7Ii8+PHRleHQgZmlsbD0iIzAwMDAwMCIgZm9udC1mYW1pbHk9InNhbnMtc2VyaWYiIGZvbnQtc2l6ZT0iMTQiIGxlbmd0aEFkanVzdD0ic3BhY2luZyIgdGV4dExlbmd0aD0iMTM1IiB4PSIyNyIgeT0iMzY3LjIzNDQiPmFkZEJvb2soYm9vazogQm9vayk8L3RleHQ+PGVsbGlwc2UgY3g9IjE4IiBjeT0iMzc3Ljk3NjYiIGZpbGw9IiM4NEJFODQiIHJ4PSIzIiByeT0iMyIgc3R5bGU9InN0cm9rZTojMDM4MDQ4O3N0cm9rZS13aWR0aDoxLjA7Ii8+PHRleHQgZmlsbD0iIzAwMDAwMCIgZm9udC1mYW1pbHk9InNhbnMtc2VyaWYiIGZvbnQtc2l6ZT0iMTQiIGxlbmd0aEFkanVzdD0ic3BhY2luZyIgdGV4dExlbmd0aD0iMjEyIiB4PSIyNyIgeT0iMzgyLjIxODgiPnVwZGF0ZUJvb2tJbmZvKGJvb2tJRDogU3RyaW5nKTwvdGV4dD48ZWxsaXBzZSBjeD0iMTgiIGN5PSIzOTIuOTYwOSIgZmlsbD0iIzg0QkU4NCIgcng9IjMiIHJ5PSIzIiBzdHlsZT0ic3Ryb2tlOiMwMzgwNDg7c3Ryb2tlLXdpZHRoOjEuMDsiLz48dGV4dCBmaWxsPSIjMDAwMDAwIiBmb250LWZhbWlseT0ic2Fucy1zZXJpZiIgZm9udC1zaXplPSIxNCIgbGVuZ3RoQWRqdXN0PSJzcGFjaW5nIiB0ZXh0TGVuZ3RoPSIzMTgiIHg9IjI3IiB5PSIzOTcuMjAzMSI+Ym9ycm93Qm9vayhzdHVkZW50SUQ6IFN0cmluZywgYm9va0lEOiBTdHJpbmcpPC90ZXh0PjxlbGxpcHNlIGN4PSIxOCIgY3k9IjQwNy45NDUzIiBmaWxsPSIjODRCRTg0IiByeD0iMyIgcnk9IjMiIHN0eWxlPSJzdHJva2U6IzAzODA0ODtzdHJva2Utd2lkdGg6MS4wOyIvPjx0ZXh0IGZpbGw9IiMwMDAwMDAiIGZvbnQtZmFtaWx5PSJzYW5zLXNlcmlmIiBmb250LXNpemU9IjE0IiBsZW5ndGhBZGp1c3Q9InNwYWNpbmciIHRleHRMZW5ndGg9IjMxNyIgeD0iMjciIHk9IjQxMi4xODc1Ij5yZXR1cm5Cb29rKHN0dWRlbnRJRDogU3RyaW5nLCBib29rSUQ6IFN0cmluZyk8L3RleHQ+PGVsbGlwc2UgY3g9IjE4IiBjeT0iNDIyLjkyOTciIGZpbGw9IiM4NEJFODQiIHJ4PSIzIiByeT0iMyIgc3R5bGU9InN0cm9rZTojMDM4MDQ4O3N0cm9rZS13aWR0aDoxLjA7Ii8+PHRleHQgZmlsbD0iIzAwMDAwMCIgZm9udC1mYW1pbHk9InNhbnMtc2VyaWYiIGZvbnQtc2l6ZT0iMTQiIGxlbmd0aEFkanVzdD0ic3BhY2luZyIgdGV4dExlbmd0aD0iMTg1IiB4PSIyNyIgeT0iNDI3LjE3MTkiPnZpZXdBbGxCb29rcygpOiBMaXN0Jmx0O0Jvb2smZ3Q7PC90ZXh0PjwvZz48IS0tY2xhc3MgQm9vay0tPjxnIGlkPSJlbGVtX0Jvb2siPjxyZWN0IGNvZGVMaW5lPSI1MiIgZmlsbD0iI0YxRjFGMSIgaGVpZ2h0PSIxMjIuOTIxOSIgaWQ9IkJvb2siIHJ4PSIyLjUiIHJ5PSIyLjUiIHN0eWxlPSJzdHJva2U6IzE4MTgxODtzdHJva2Utd2lkdGg6MC41OyIgd2lkdGg9IjE1MyIgeD0iMTc3LjUiIHk9IjU2OCIvPjxlbGxpcHNlIGN4PSIyMzUuNzUiIGN5PSI1ODQiIGZpbGw9IiNBREQxQjIiIHJ4PSIxMSIgcnk9IjExIiBzdHlsZT0ic3Ryb2tlOiMxODE4MTg7c3Ryb2tlLXdpZHRoOjEuMDsiLz48cGF0aCBkPSJNMjMzLjM3NSw1ODguMjUgTDIzMy4zNzUsNTkwIEwyMzguMzEyNSw1OTAgTDIzOC4zMTI1LDU4OC4yNSBMMjMzLjM3NSw1ODguMjUgWiBNMjM0LjA2MjUsNTg4LjkzNzUgUTIzNC4wNjI1LDU4OC45Mzc1IDIzNC4wNjI1LDU3OS43NSBMMjMyLjMxMjUsNTc5Ljc1IFEyMzIuMzEyNSw1NzkuNzUgMjMyLjMxMjUsNTg4LjkzNzUgTDIzNC4wNjI1LDU4OC45Mzc1IFogTTIzNy42MjUsNTg4LjkzNzUgTDIzOS4zNzUsNTg4LjkzNzUgUTIzOS4zNzUsNTg4LjkzNzUgMjM5LjM3NSw1ODYuMTI1IEwyMzcuNjI1LDU4Ni4xMjUgUTIzNy42MjUsNTg2LjEyNSAyMzcuNjI1LDU4OC45Mzc1IFogTTIzNy42MjUsNTc5Ljc1IFEyMzcuNjI1LDU3OS43NSAyMzcuNjI1LDU4Mi41NjI1IEwyMzkuMzc1LDU4Mi41NjI1IFEyMzkuMzc1LDU4Mi41NjI1IDIzOS4zNzUsNTc5Ljc1IEwyMzcuNjI1LDU3OS43NSBaIE0yMzMuMzc1LDU4MC40Mzc1IEwyMzguMzEyNSw1ODAuNDM3NSBMMjM4LjMxMjUsNTc4LjY4NzUgTDIzMy4zNzUsNTc4LjY4NzUgTDIzMy4zNzUsNTgwLjQzNzUgWiAiIGZpbGw9IiMwMDAwMDAiLz48dGV4dCBmaWxsPSIjMDAwMDAwIiBmb250LWZhbWlseT0ic2Fucy1zZXJpZiIgZm9udC1zaXplPSIxNCIgbGVuZ3RoQWRqdXN0PSJzcGFjaW5nIiB0ZXh0TGVuZ3RoPSIyOCIgeD0iMjU2LjI1IiB5PSI1ODkuNzQyMiI+Qm9vazwvdGV4dD48bGluZSBzdHlsZT0ic3Ryb2tlOiMxODE4MTg7c3Ryb2tlLXdpZHRoOjAuNTsiIHgxPSIxNzguNSIgeDI9IjMyOS41IiB5MT0iNjAwIiB5Mj0iNjAwIi8+PGVsbGlwc2UgY3g9IjE4OC41IiBjeT0iNjEyLjk5MjIiIGZpbGw9Im5vbmUiIHJ4PSIzIiByeT0iMyIgc3R5bGU9InN0cm9rZTojMDM4MDQ4O3N0cm9rZS13aWR0aDoxLjA7Ii8+PHRleHQgZmlsbD0iIzAwMDAwMCIgZm9udC1mYW1pbHk9InNhbnMtc2VyaWYiIGZvbnQtc2l6ZT0iMTQiIGxlbmd0aEFkanVzdD0ic3BhY2luZyIgdGV4dExlbmd0aD0iOTgiIHg9IjE5Ny41IiB5PSI2MTcuMjM0NCI+Ym9va0lEOiBTdHJpbmc8L3RleHQ+PGVsbGlwc2UgY3g9IjE4OC41IiBjeT0iNjI3Ljk3NjYiIGZpbGw9Im5vbmUiIHJ4PSIzIiByeT0iMyIgc3R5bGU9InN0cm9rZTojMDM4MDQ4O3N0cm9rZS13aWR0aDoxLjA7Ii8+PHRleHQgZmlsbD0iIzAwMDAwMCIgZm9udC1mYW1pbHk9InNhbnMtc2VyaWYiIGZvbnQtc2l6ZT0iMTQiIGxlbmd0aEFkanVzdD0ic3BhY2luZyIgdGV4dExlbmd0aD0iOTEiIHg9IjE5Ny41IiB5PSI2MzIuMjE4OCI+dGl0bGU6IFN0cmluZzwvdGV4dD48ZWxsaXBzZSBjeD0iMTg4LjUiIGN5PSI2NDIuOTYwOSIgZmlsbD0ibm9uZSIgcng9IjMiIHJ5PSIzIiBzdHlsZT0ic3Ryb2tlOiMwMzgwNDg7c3Ryb2tlLXdpZHRoOjEuMDsiLz48dGV4dCBmaWxsPSIjMDAwMDAwIiBmb250LWZhbWlseT0ic2Fucy1zZXJpZiIgZm9udC1zaXplPSIxNCIgbGVuZ3RoQWRqdXN0PSJzcGFjaW5nIiB0ZXh0TGVuZ3RoPSI5OCIgeD0iMTk3LjUiIHk9IjY0Ny4yMDMxIj5hdXRob3I6IFN0cmluZzwvdGV4dD48ZWxsaXBzZSBjeD0iMTg4LjUiIGN5PSI2NTcuOTQ1MyIgZmlsbD0ibm9uZSIgcng9IjMiIHJ5PSIzIiBzdHlsZT0ic3Ryb2tlOiMwMzgwNDg7c3Ryb2tlLXdpZHRoOjEuMDsiLz48dGV4dCBmaWxsPSIjMDAwMDAwIiBmb250LWZhbWlseT0ic2Fucy1zZXJpZiIgZm9udC1zaXplPSIxNCIgbGVuZ3RoQWRqdXN0PSJzcGFjaW5nIiB0ZXh0TGVuZ3RoPSI5OCIgeD0iMTk3LjUiIHk9IjY2Mi4xODc1Ij5zdGF0dXM6IFN0cmluZzwvdGV4dD48ZWxsaXBzZSBjeD0iMTg4LjUiIGN5PSI2NzIuOTI5NyIgZmlsbD0ibm9uZSIgcng9IjMiIHJ5PSIzIiBzdHlsZT0ic3Ryb2tlOiMwMzgwNDg7c3Ryb2tlLXdpZHRoOjEuMDsiLz48dGV4dCBmaWxsPSIjMDAwMDAwIiBmb250LWZhbWlseT0ic2Fucy1zZXJpZiIgZm9udC1zaXplPSIxNCIgbGVuZ3RoQWRqdXN0PSJzcGFjaW5nIiB0ZXh0TGVuZ3RoPSIxMjciIHg9IjE5Ny41IiB5PSI2NzcuMTcxOSI+Ym9ycm93ZWRCeTogU3RyaW5nPC90ZXh0PjxsaW5lIHN0eWxlPSJzdHJva2U6IzE4MTgxODtzdHJva2Utd2lkdGg6MC41OyIgeDE9IjE3OC41IiB4Mj0iMzI5LjUiIHkxPSI2ODIuOTIxOSIgeTI9IjY4Mi45MjE5Ii8+PC9nPjwhLS1jbGFzcyBEZXBhcnRtZW50LS0+PGcgaWQ9ImVsZW1fRGVwYXJ0bWVudCI+PHJlY3QgY29kZUxpbmU9IjYwIiBmaWxsPSIjRjFGMUYxIiBoZWlnaHQ9IjEyMi45MjE5IiBpZD0iRGVwYXJ0bWVudCIgcng9IjIuNSIgcnk9IjIuNSIgc3R5bGU9InN0cm9rZTojMTgxODE4O3N0cm9rZS13aWR0aDowLjU7IiB3aWR0aD0iMjY2IiB4PSI2NzMiIHk9IjMxMCIvPjxlbGxpcHNlIGN4PSI3NjYuMjUiIGN5PSIzMjYiIGZpbGw9IiNBREQxQjIiIHJ4PSIxMSIgcnk9IjExIiBzdHlsZT0ic3Ryb2tlOiMxODE4MTg7c3Ryb2tlLXdpZHRoOjEuMDsiLz48cGF0aCBkPSJNNzYzLjg3NSwzMzAuMjUgTDc2My44NzUsMzMyIEw3NjguODEyNSwzMzIgTDc2OC44MTI1LDMzMC4yNSBMNzYzLjg3NSwzMzAuMjUgWiBNNzY0LjU2MjUsMzMwLjkzNzUgUTc2NC41NjI1LDMzMC45Mzc1IDc2NC41NjI1LDMyMS43NSBMNzYyLjgxMjUsMzIxLjc1IFE3NjIuODEyNSwzMjEuNzUgNzYyLjgxMjUsMzMwLjkzNzUgTDc2NC41NjI1LDMzMC45Mzc1IFogTTc2OC4xMjUsMzMwLjkzNzUgTDc2OS44NzUsMzMwLjkzNzUgUTc2OS44NzUsMzMwLjkzNzUgNzY5Ljg3NSwzMjguMTI1IEw3NjguMTI1LDMyOC4xMjUgUTc2OC4xMjUsMzI4LjEyNSA3NjguMTI1LDMzMC45Mzc1IFogTTc2OC4xMjUsMzIxLjc1IFE3NjguMTI1LDMyMS43NSA3NjguMTI1LDMyNC41NjI1IEw3NjkuODc1LDMyNC41NjI1IFE3NjkuODc1LDMyNC41NjI1IDc2OS44NzUsMzIxLjc1IEw3NjguMTI1LDMyMS43NSBaIE03NjMuODc1LDMyMi40Mzc1IEw3NjguODEyNSwzMjIuNDM3NSBMNzY4LjgxMjUsMzIwLjY4NzUgTDc2My44NzUsMzIwLjY4NzUgTDc2My44NzUsMzIyLjQzNzUgWiAiIGZpbGw9IiMwMDAwMDAiLz48dGV4dCBmaWxsPSIjMDAwMDAwIiBmb250LWZhbWlseT0ic2Fucy1zZXJpZiIgZm9udC1zaXplPSIxNCIgbGVuZ3RoQWRqdXN0PSJzcGFjaW5nIiB0ZXh0TGVuZ3RoPSI3MSIgeD0iNzg2Ljc1IiB5PSIzMzEuNzQyMiI+RGVwYXJ0bWVudDwvdGV4dD48bGluZSBzdHlsZT0ic3Ryb2tlOiMxODE4MTg7c3Ryb2tlLXdpZHRoOjAuNTsiIHgxPSI2NzQiIHgyPSI5MzgiIHkxPSIzNDIiIHkyPSIzNDIiLz48ZWxsaXBzZSBjeD0iNjg0IiBjeT0iMzU0Ljk5MjIiIGZpbGw9Im5vbmUiIHJ4PSIzIiByeT0iMyIgc3R5bGU9InN0cm9rZTojMDM4MDQ4O3N0cm9rZS13aWR0aDoxLjA7Ii8+PHRleHQgZmlsbD0iIzAwMDAwMCIgZm9udC1mYW1pbHk9InNhbnMtc2VyaWYiIGZvbnQtc2l6ZT0iMTQiIGxlbmd0aEFkanVzdD0ic3BhY2luZyIgdGV4dExlbmd0aD0iMTQxIiB4PSI2OTMiIHk9IjM1OS4yMzQ0Ij5kZXBhcnRtZW50SUQ6IFN0cmluZzwvdGV4dD48ZWxsaXBzZSBjeD0iNjg0IiBjeT0iMzY5Ljk3NjYiIGZpbGw9Im5vbmUiIHJ4PSIzIiByeT0iMyIgc3R5bGU9InN0cm9rZTojMDM4MDQ4O3N0cm9rZS13aWR0aDoxLjA7Ii8+PHRleHQgZmlsbD0iIzAwMDAwMCIgZm9udC1mYW1pbHk9InNhbnMtc2VyaWYiIGZvbnQtc2l6ZT0iMTQiIGxlbmd0aEFkanVzdD0ic3BhY2luZyIgdGV4dExlbmd0aD0iODUiIHg9IjY5MyIgeT0iMzc0LjIxODgiPm5hbWU6IFN0cmluZzwvdGV4dD48ZWxsaXBzZSBjeD0iNjg0IiBjeT0iMzg0Ljk2MDkiIGZpbGw9Im5vbmUiIHJ4PSIzIiByeT0iMyIgc3R5bGU9InN0cm9rZTojMDM4MDQ4O3N0cm9rZS13aWR0aDoxLjA7Ii8+PHRleHQgZmlsbD0iIzAwMDAwMCIgZm9udC1mYW1pbHk9InNhbnMtc2VyaWYiIGZvbnQtc2l6ZT0iMTQiIGxlbmd0aEFkanVzdD0ic3BhY2luZyIgdGV4dExlbmd0aD0iODQiIHg9IjY5MyIgeT0iMzg5LjIwMzEiPmhlYWQ6IFN0cmluZzwvdGV4dD48bGluZSBzdHlsZT0ic3Ryb2tlOiMxODE4MTg7c3Ryb2tlLXdpZHRoOjAuNTsiIHgxPSI2NzQiIHgyPSI5MzgiIHkxPSIzOTQuOTUzMSIgeTI9IjM5NC45NTMxIi8+PGVsbGlwc2UgY3g9IjY4NCIgY3k9IjQwNy45NDUzIiBmaWxsPSIjODRCRTg0IiByeD0iMyIgcnk9IjMiIHN0eWxlPSJzdHJva2U6IzAzODA0ODtzdHJva2Utd2lkdGg6MS4wOyIvPjx0ZXh0IGZpbGw9IiMwMDAwMDAiIGZvbnQtZmFtaWx5PSJzYW5zLXNlcmlmIiBmb250LXNpemU9IjE0IiBsZW5ndGhBZGp1c3Q9InNwYWNpbmciIHRleHRMZW5ndGg9IjE3NyIgeD0iNjkzIiB5PSI0MTIuMTg3NSI+YWRkQ291cnNlKGNvdXJzZTogQ291cnNlKTwvdGV4dD48ZWxsaXBzZSBjeD0iNjg0IiBjeT0iNDIyLjkyOTciIGZpbGw9IiM4NEJFODQiIHJ4PSIzIiByeT0iMyIgc3R5bGU9InN0cm9rZTojMDM4MDQ4O3N0cm9rZS13aWR0aDoxLjA7Ii8+PHRleHQgZmlsbD0iIzAwMDAwMCIgZm9udC1mYW1pbHk9InNhbnMtc2VyaWYiIGZvbnQtc2l6ZT0iMTQiIGxlbmd0aEFkanVzdD0ic3BhY2luZyIgdGV4dExlbmd0aD0iMjQwIiB4PSI2OTMiIHk9IjQyNy4xNzE5Ij51cGRhdGVDb3Vyc2VJbmZvKGNvdXJzZUlEOiBTdHJpbmcpPC90ZXh0PjwvZz48IS0tY2xhc3MgRmVlU3lzdGVtLS0+PGcgaWQ9ImVsZW1fRmVlU3lzdGVtIj48cmVjdCBjb2RlTGluZT0iNjgiIGZpbGw9IiNGMUYxRjEiIGhlaWdodD0iOTIuOTUzMSIgaWQ9IkZlZVN5c3RlbSIgcng9IjIuNSIgcnk9IjIuNSIgc3R5bGU9InN0cm9rZTojMTgxODE4O3N0cm9rZS13aWR0aDowLjU7IiB3aWR0aD0iNDA3IiB4PSIxNTI1LjUiIHk9IjU5LjUiLz48ZWxsaXBzZSBjeD0iMTY5Mi43NSIgY3k9Ijc1LjUiIGZpbGw9IiNBREQxQjIiIHJ4PSIxMSIgcnk9IjExIiBzdHlsZT0ic3Ryb2tlOiMxODE4MTg7c3Ryb2tlLXdpZHRoOjEuMDsiLz48cGF0aCBkPSJNMTY5MC4zNzUsNzkuNzUgTDE2OTAuMzc1LDgxLjUgTDE2OTUuMzEyNSw4MS41IEwxNjk1LjMxMjUsNzkuNzUgTDE2OTAuMzc1LDc5Ljc1IFogTTE2OTEuMDYyNSw4MC40Mzc1IFExNjkxLjA2MjUsODAuNDM3NSAxNjkxLjA2MjUsNzEuMjUgTDE2ODkuMzEyNSw3MS4yNSBRMTY4OS4zMTI1LDcxLjI1IDE2ODkuMzEyNSw4MC40Mzc1IEwxNjkxLjA2MjUsODAuNDM3NSBaIE0xNjk0LjYyNSw4MC40Mzc1IEwxNjk2LjM3NSw4MC40Mzc1IFExNjk2LjM3NSw4MC40Mzc1IDE2OTYuMzc1LDc3LjYyNSBMMTY5NC42MjUsNzcuNjI1IFExNjk0LjYyNSw3Ny42MjUgMTY5NC42MjUsODAuNDM3NSBaIE0xNjk0LjYyNSw3MS4yNSBRMTY5NC42MjUsNzEuMjUgMTY5NC42MjUsNzQuMDYyNSBMMTY5Ni4zNzUsNzQuMDYyNSBRMTY5Ni4zNzUsNzQuMDYyNSAxNjk2LjM3NSw3MS4yNSBMMTY5NC42MjUsNzEuMjUgWiBNMTY5MC4zNzUsNzEuOTM3NSBMMTY5NS4zMTI1LDcxLjkzNzUgTDE2OTUuMzEyNSw3MC4xODc1IEwxNjkwLjM3NSw3MC4xODc1IEwxNjkwLjM3NSw3MS45Mzc1IFogIiBmaWxsPSIjMDAwMDAwIi8+PHRleHQgZmlsbD0iIzAwMDAwMCIgZm9udC1mYW1pbHk9InNhbnMtc2VyaWYiIGZvbnQtc2l6ZT0iMTQiIGxlbmd0aEFkanVzdD0ic3BhY2luZyIgdGV4dExlbmd0aD0iNjQiIHg9IjE3MTMuMjUiIHk9IjgxLjI0MjIiPkZlZVN5c3RlbTwvdGV4dD48bGluZSBzdHlsZT0ic3Ryb2tlOiMxODE4MTg7c3Ryb2tlLXdpZHRoOjAuNTsiIHgxPSIxNTI2LjUiIHgyPSIxOTMxLjUiIHkxPSI5MS41IiB5Mj0iOTEuNSIvPjxsaW5lIHN0eWxlPSJzdHJva2U6IzE4MTgxODtzdHJva2Utd2lkdGg6MC41OyIgeDE9IjE1MjYuNSIgeDI9IjE5MzEuNSIgeTE9Ijk5LjUiIHkyPSI5OS41Ii8+PGVsbGlwc2UgY3g9IjE1MzYuNSIgY3k9IjExMi40OTIyIiBmaWxsPSIjODRCRTg0IiByeD0iMyIgcnk9IjMiIHN0eWxlPSJzdHJva2U6IzAzODA0ODtzdHJva2Utd2lkdGg6MS4wOyIvPjx0ZXh0IGZpbGw9IiMwMDAwMDAiIGZvbnQtZmFtaWx5PSJzYW5zLXNlcmlmIiBmb250LXNpemU9IjE0IiBsZW5ndGhBZGp1c3Q9InNwYWNpbmciIHRleHRMZW5ndGg9IjM1MyIgeD0iMTU0NS41IiB5PSIxMTYuNzM0NCI+Z2VuZXJhdGVJbnZvaWNlKHN0dWRlbnRJRDogU3RyaW5nLCBhbW91bnQ6IERvdWJsZSk8L3RleHQ+PGVsbGlwc2UgY3g9IjE1MzYuNSIgY3k9IjEyNy40NzY2IiBmaWxsPSIjODRCRTg0IiByeD0iMyIgcnk9IjMiIHN0eWxlPSJzdHJva2U6IzAzODA0ODtzdHJva2Utd2lkdGg6MS4wOyIvPjx0ZXh0IGZpbGw9IiMwMDAwMDAiIGZvbnQtZmFtaWx5PSJzYW5zLXNlcmlmIiBmb250LXNpemU9IjE0IiBsZW5ndGhBZGp1c3Q9InNwYWNpbmciIHRleHRMZW5ndGg9IjM4MSIgeD0iMTU0NS41IiB5PSIxMzEuNzE4OCI+dXBkYXRlUGF5bWVudFN0YXR1cyhzdHVkZW50SUQ6IFN0cmluZywgc3RhdHVzOiBTdHJpbmcpPC90ZXh0PjxlbGxpcHNlIGN4PSIxNTM2LjUiIGN5PSIxNDIuNDYwOSIgZmlsbD0iIzg0QkU4NCIgcng9IjMiIHJ5PSIzIiBzdHlsZT0ic3Ryb2tlOiMwMzgwNDg7c3Ryb2tlLXdpZHRoOjEuMDsiLz48dGV4dCBmaWxsPSIjMDAwMDAwIiBmb250LWZhbWlseT0ic2Fucy1zZXJpZiIgZm9udC1zaXplPSIxNCIgbGVuZ3RoQWRqdXN0PSJzcGFjaW5nIiB0ZXh0TGVuZ3RoPSIyNjkiIHg9IjE1NDUuNSIgeT0iMTQ2LjcwMzEiPnZpZXdGZWVzKHN0dWRlbnRJRDogU3RyaW5nKTogTGlzdCZsdDtGZWUmZ3Q7PC90ZXh0PjwvZz48IS0tY2xhc3MgRmVlLS0+PGcgaWQ9ImVsZW1fRmVlIj48cmVjdCBjb2RlTGluZT0iNzQiIGZpbGw9IiNGMUYxRjEiIGhlaWdodD0iMTIyLjkyMTkiIGlkPSJGZWUiIHJ4PSIyLjUiIHJ5PSIyLjUiIHN0eWxlPSJzdHJva2U6IzE4MTgxODtzdHJva2Utd2lkdGg6MC41OyIgd2lkdGg9IjE0NSIgeD0iMTIxNC41IiB5PSIzMTAiLz48ZWxsaXBzZSBjeD0iMTI3Mi4yNSIgY3k9IjMyNiIgZmlsbD0iI0FERDFCMiIgcng9IjExIiByeT0iMTEiIHN0eWxlPSJzdHJva2U6IzE4MTgxODtzdHJva2Utd2lkdGg6MS4wOyIvPjxwYXRoIGQ9Ik0xMjY5Ljg3NSwzMzAuMjUgTDEyNjkuODc1LDMzMiBMMTI3NC44MTI1LDMzMiBMMTI3NC44MTI1LDMzMC4yNSBMMTI2OS44NzUsMzMwLjI1IFogTTEyNzAuNTYyNSwzMzAuOTM3NSBRMTI3MC41NjI1LDMzMC45Mzc1IDEyNzAuNTYyNSwzMjEuNzUgTDEyNjguODEyNSwzMjEuNzUgUTEyNjguODEyNSwzMjEuNzUgMTI2OC44MTI1LDMzMC45Mzc1IEwxMjcwLjU2MjUsMzMwLjkzNzUgWiBNMTI3NC4xMjUsMzMwLjkzNzUgTDEyNzUuODc1LDMzMC45Mzc1IFExMjc1Ljg3NSwzMzAuOTM3NSAxMjc1Ljg3NSwzMjguMTI1IEwxMjc0LjEyNSwzMjguMTI1IFExMjc0LjEyNSwzMjguMTI1IDEyNzQuMTI1LDMzMC45Mzc1IFogTTEyNzQuMTI1LDMyMS43NSBRMTI3NC4xMjUsMzIxLjc1IDEyNzQuMTI1LDMyNC41NjI1IEwxMjc1Ljg3NSwzMjQuNTYyNSBRMTI3NS44NzUsMzI0LjU2MjUgMTI3NS44NzUsMzIxLjc1IEwxMjc0LjEyNSwzMjEuNzUgWiBNMTI2OS44NzUsMzIyLjQzNzUgTDEyNzQuODEyNSwzMjIuNDM3NSBMMTI3NC44MTI1LDMyMC42ODc1IEwxMjY5Ljg3NSwzMjAuNjg3NSBMMTI2OS44NzUsMzIyLjQzNzUgWiAiIGZpbGw9IiMwMDAwMDAiLz48dGV4dCBmaWxsPSIjMDAwMDAwIiBmb250LWZhbWlseT0ic2Fucy1zZXJpZiIgZm9udC1zaXplPSIxNCIgbGVuZ3RoQWRqdXN0PSJzcGFjaW5nIiB0ZXh0TGVuZ3RoPSIyMSIgeD0iMTI5Mi43NSIgeT0iMzMxLjc0MjIiPkZlZTwvdGV4dD48bGluZSBzdHlsZT0ic3Ryb2tlOiMxODE4MTg7c3Ryb2tlLXdpZHRoOjAuNTsiIHgxPSIxMjE1LjUiIHgyPSIxMzU4LjUiIHkxPSIzNDIiIHkyPSIzNDIiLz48ZWxsaXBzZSBjeD0iMTIyNS41IiBjeT0iMzU0Ljk5MjIiIGZpbGw9Im5vbmUiIHJ4PSIzIiByeT0iMyIgc3R5bGU9InN0cm9rZTojMDM4MDQ4O3N0cm9rZS13aWR0aDoxLjA7Ii8+PHRleHQgZmlsbD0iIzAwMDAwMCIgZm9udC1mYW1pbHk9InNhbnMtc2VyaWYiIGZvbnQtc2l6ZT0iMTQiIGxlbmd0aEFkanVzdD0ic3BhY2luZyIgdGV4dExlbmd0aD0iOTEiIHg9IjEyMzQuNSIgeT0iMzU5LjIzNDQiPmZlZUlEOiBTdHJpbmc8L3RleHQ+PGVsbGlwc2UgY3g9IjEyMjUuNSIgY3k9IjM2OS45NzY2IiBmaWxsPSJub25lIiByeD0iMyIgcnk9IjMiIHN0eWxlPSJzdHJva2U6IzAzODA0ODtzdHJva2Utd2lkdGg6MS4wOyIvPjx0ZXh0IGZpbGw9IiMwMDAwMDAiIGZvbnQtZmFtaWx5PSJzYW5zLXNlcmlmIiBmb250LXNpemU9IjE0IiBsZW5ndGhBZGp1c3Q9InNwYWNpbmciIHRleHRMZW5ndGg9IjExOSIgeD0iMTIzNC41IiB5PSIzNzQuMjE4OCI+c3R1ZGVudElEOiBTdHJpbmc8L3RleHQ+PGVsbGlwc2UgY3g9IjEyMjUuNSIgY3k9IjM4NC45NjA5IiBmaWxsPSJub25lIiByeD0iMyIgcnk9IjMiIHN0eWxlPSJzdHJva2U6IzAzODA0ODtzdHJva2Utd2lkdGg6MS4wOyIvPjx0ZXh0IGZpbGw9IiMwMDAwMDAiIGZvbnQtZmFtaWx5PSJzYW5zLXNlcmlmIiBmb250LXNpemU9IjE0IiBsZW5ndGhBZGp1c3Q9InNwYWNpbmciIHRleHRMZW5ndGg9Ijk5IiB4PSIxMjM0LjUiIHk9IjM4OS4yMDMxIj5hbW91bnQ6IERvdWJsZTwvdGV4dD48ZWxsaXBzZSBjeD0iMTIyNS41IiBjeT0iMzk5Ljk0NTMiIGZpbGw9Im5vbmUiIHJ4PSIzIiByeT0iMyIgc3R5bGU9InN0cm9rZTojMDM4MDQ4O3N0cm9rZS13aWR0aDoxLjA7Ii8+PHRleHQgZmlsbD0iIzAwMDAwMCIgZm9udC1mYW1pbHk9InNhbnMtc2VyaWYiIGZvbnQtc2l6ZT0iMTQiIGxlbmd0aEFkanVzdD0ic3BhY2luZyIgdGV4dExlbmd0aD0iOTEiIHg9IjEyMzQuNSIgeT0iNDA0LjE4NzUiPmR1ZURhdGU6IERhdGU8L3RleHQ+PGVsbGlwc2UgY3g9IjEyMjUuNSIgY3k9IjQxNC45Mjk3IiBmaWxsPSJub25lIiByeD0iMyIgcnk9IjMiIHN0eWxlPSJzdHJva2U6IzAzODA0ODtzdHJva2Utd2lkdGg6MS4wOyIvPjx0ZXh0IGZpbGw9IiMwMDAwMDAiIGZvbnQtZmFtaWx5PSJzYW5zLXNlcmlmIiBmb250LXNpemU9IjE0IiBsZW5ndGhBZGp1c3Q9InNwYWNpbmciIHRleHRMZW5ndGg9Ijk4IiB4PSIxMjM0LjUiIHk9IjQxOS4xNzE5Ij5zdGF0dXM6IFN0cmluZzwvdGV4dD48bGluZSBzdHlsZT0ic3Ryb2tlOiMxODE4MTg7c3Ryb2tlLXdpZHRoOjAuNTsiIHgxPSIxMjE1LjUiIHgyPSIxMzU4LjUiIHkxPSI0MjQuOTIxOSIgeTI9IjQyNC45MjE5Ii8+PC9nPjwhLS1jbGFzcyBBY2NvdW50YW50LS0+PGcgaWQ9ImVsZW1fQWNjb3VudGFudCI+PHJlY3QgY29kZUxpbmU9IjgyIiBmaWxsPSIjRjFGMUYxIiBoZWlnaHQ9IjEzNy45MDYzIiBpZD0iQWNjb3VudGFudCIgcng9IjIuNSIgcnk9IjIuNSIgc3R5bGU9InN0cm9rZTojMTgxODE4O3N0cm9rZS13aWR0aDowLjU7IiB3aWR0aD0iNDA3IiB4PSIxMDgzLjUiIHk9IjM3Ii8+PGVsbGlwc2UgY3g9IjEyNDcuNzUiIGN5PSI1MyIgZmlsbD0iI0FERDFCMiIgcng9IjExIiByeT0iMTEiIHN0eWxlPSJzdHJva2U6IzE4MTgxODtzdHJva2Utd2lkdGg6MS4wOyIvPjxwYXRoIGQ9Ik0xMjQ1LjM3NSw1Ny4yNSBMMTI0NS4zNzUsNTkgTDEyNTAuMzEyNSw1OSBMMTI1MC4zMTI1LDU3LjI1IEwxMjQ1LjM3NSw1Ny4yNSBaIE0xMjQ2LjA2MjUsNTcuOTM3NSBRMTI0Ni4wNjI1LDU3LjkzNzUgMTI0Ni4wNjI1LDQ4Ljc1IEwxMjQ0LjMxMjUsNDguNzUgUTEyNDQuMzEyNSw0OC43NSAxMjQ0LjMxMjUsNTcuOTM3NSBMMTI0Ni4wNjI1LDU3LjkzNzUgWiBNMTI0OS42MjUsNTcuOTM3NSBMMTI1MS4zNzUsNTcuOTM3NSBRMTI1MS4zNzUsNTcuOTM3NSAxMjUxLjM3NSw1NS4xMjUgTDEyNDkuNjI1LDU1LjEyNSBRMTI0OS42MjUsNTUuMTI1IDEyNDkuNjI1LDU3LjkzNzUgWiBNMTI0OS42MjUsNDguNzUgUTEyNDkuNjI1LDQ4Ljc1IDEyNDkuNjI1LDUxLjU2MjUgTDEyNTEuMzc1LDUxLjU2MjUgUTEyNTEuMzc1LDUxLjU2MjUgMTI1MS4zNzUsNDguNzUgTDEyNDkuNjI1LDQ4Ljc1IFogTTEyNDUuMzc1LDQ5LjQzNzUgTDEyNTAuMzEyNSw0OS40Mzc1IEwxMjUwLjMxMjUsNDcuNjg3NSBMMTI0NS4zNzUsNDcuNjg3NSBMMTI0NS4zNzUsNDkuNDM3NSBaICIgZmlsbD0iIzAwMDAwMCIvPjx0ZXh0IGZpbGw9IiMwMDAwMDAiIGZvbnQtZmFtaWx5PSJzYW5zLXNlcmlmIiBmb250LXNpemU9IjE0IiBsZW5ndGhBZGp1c3Q9InNwYWNpbmciIHRleHRMZW5ndGg9IjcwIiB4PSIxMjY4LjI1IiB5PSI1OC43NDIyIj5BY2NvdW50YW50PC90ZXh0PjxsaW5lIHN0eWxlPSJzdHJva2U6IzE4MTgxODtzdHJva2Utd2lkdGg6MC41OyIgeDE9IjEwODQuNSIgeDI9IjE0ODkuNSIgeTE9IjY5IiB5Mj0iNjkiLz48ZWxsaXBzZSBjeD0iMTA5NC41IiBjeT0iODEuOTkyMiIgZmlsbD0ibm9uZSIgcng9IjMiIHJ5PSIzIiBzdHlsZT0ic3Ryb2tlOiMwMzgwNDg7c3Ryb2tlLXdpZHRoOjEuMDsiLz48dGV4dCBmaWxsPSIjMDAwMDAwIiBmb250LWZhbWlseT0ic2Fucy1zZXJpZiIgZm9udC1zaXplPSIxNCIgbGVuZ3RoQWRqdXN0PSJzcGFjaW5nIiB0ZXh0TGVuZ3RoPSIxNDAiIHg9IjExMDMuNSIgeT0iODYuMjM0NCI+YWNjb3VudGFudElEOiBTdHJpbmc8L3RleHQ+PGVsbGlwc2UgY3g9IjEwOTQuNSIgY3k9Ijk2Ljk3NjYiIGZpbGw9Im5vbmUiIHJ4PSIzIiByeT0iMyIgc3R5bGU9InN0cm9rZTojMDM4MDQ4O3N0cm9rZS13aWR0aDoxLjA7Ii8+PHRleHQgZmlsbD0iIzAwMDAwMCIgZm9udC1mYW1pbHk9InNhbnMtc2VyaWYiIGZvbnQtc2l6ZT0iMTQiIGxlbmd0aEFkanVzdD0ic3BhY2luZyIgdGV4dExlbmd0aD0iODUiIHg9IjExMDMuNSIgeT0iMTAxLjIxODgiPm5hbWU6IFN0cmluZzwvdGV4dD48ZWxsaXBzZSBjeD0iMTA5NC41IiBjeT0iMTExLjk2MDkiIGZpbGw9Im5vbmUiIHJ4PSIzIiByeT0iMyIgc3R5bGU9InN0cm9rZTojMDM4MDQ4O3N0cm9rZS13aWR0aDoxLjA7Ii8+PHRleHQgZmlsbD0iIzAwMDAwMCIgZm9udC1mYW1pbHk9InNhbnMtc2VyaWYiIGZvbnQtc2l6ZT0iMTQiIGxlbmd0aEFkanVzdD0ic3BhY2luZyIgdGV4dExlbmd0aD0iOTIiIHg9IjExMDMuNSIgeT0iMTE2LjIwMzEiPmVtYWlsOiBTdHJpbmc8L3RleHQ+PGxpbmUgc3R5bGU9InN0cm9rZTojMTgxODE4O3N0cm9rZS13aWR0aDowLjU7IiB4MT0iMTA4NC41IiB4Mj0iMTQ4OS41IiB5MT0iMTIxLjk1MzEiIHkyPSIxMjEuOTUzMSIvPjxlbGxpcHNlIGN4PSIxMDk0LjUiIGN5PSIxMzQuOTQ1MyIgZmlsbD0iIzg0QkU4NCIgcng9IjMiIHJ5PSIzIiBzdHlsZT0ic3Ryb2tlOiMwMzgwNDg7c3Ryb2tlLXdpZHRoOjEuMDsiLz48dGV4dCBmaWxsPSIjMDAwMDAwIiBmb250LWZhbWlseT0ic2Fucy1zZXJpZiIgZm9udC1zaXplPSIxNCIgbGVuZ3RoQWRqdXN0PSJzcGFjaW5nIiB0ZXh0TGVuZ3RoPSIzNTMiIHg9IjExMDMuNSIgeT0iMTM5LjE4NzUiPmdlbmVyYXRlSW52b2ljZShzdHVkZW50SUQ6IFN0cmluZywgYW1vdW50OiBEb3VibGUpPC90ZXh0PjxlbGxpcHNlIGN4PSIxMDk0LjUiIGN5PSIxNDkuOTI5NyIgZmlsbD0iIzg0QkU4NCIgcng9IjMiIHJ5PSIzIiBzdHlsZT0ic3Ryb2tlOiMwMzgwNDg7c3Ryb2tlLXdpZHRoOjEuMDsiLz48dGV4dCBmaWxsPSIjMDAwMDAwIiBmb250LWZhbWlseT0ic2Fucy1zZXJpZiIgZm9udC1zaXplPSIxNCIgbGVuZ3RoQWRqdXN0PSJzcGFjaW5nIiB0ZXh0TGVuZ3RoPSIzODEiIHg9IjExMDMuNSIgeT0iMTU0LjE3MTkiPnVwZGF0ZVBheW1lbnRTdGF0dXMoc3R1ZGVudElEOiBTdHJpbmcsIHN0YXR1czogU3RyaW5nKTwvdGV4dD48ZWxsaXBzZSBjeD0iMTA5NC41IiBjeT0iMTY0LjkxNDEiIGZpbGw9IiM4NEJFODQiIHJ4PSIzIiByeT0iMyIgc3R5bGU9InN0cm9rZTojMDM4MDQ4O3N0cm9rZS13aWR0aDoxLjA7Ii8+PHRleHQgZmlsbD0iIzAwMDAwMCIgZm9udC1mYW1pbHk9InNhbnMtc2VyaWYiIGZvbnQtc2l6ZT0iMTQiIGxlbmd0aEFkanVzdD0ic3BhY2luZyIgdGV4dExlbmd0aD0iMjY5IiB4PSIxMTAzLjUiIHk9IjE2OS4xNTYzIj52aWV3RmVlcyhzdHVkZW50SUQ6IFN0cmluZyk6IExpc3QmbHQ7RmVlJmd0OzwvdGV4dD48L2c+PCEtLWxpbmsgU3R1ZGVudCB0byBHcmFkZS0tPjxnIGlkPSJsaW5rX1N0dWRlbnRfR3JhZGUiPjxwYXRoIGNvZGVMaW5lPSI5MSIgZD0iTTUxMiw0NjMuMTIgQzUxMiw1MDMuNjggNTEyLDU0OS43MyA1MTIsNTgyLjkyICIgZmlsbD0ibm9uZSIgaWQ9IlN0dWRlbnQtR3JhZGUiIHN0eWxlPSJzdHJva2U6IzE4MTgxODtzdHJva2Utd2lkdGg6MS4wOyIvPjx0ZXh0IGZpbGw9IiMwMDAwMDAiIGZvbnQtZmFtaWx5PSJzYW5zLXNlcmlmIiBmb250LXNpemU9IjEzIiBsZW5ndGhBZGp1c3Q9InNwYWNpbmciIHRleHRMZW5ndGg9IjciIHg9IjUwNC43MjExIiB5PSI0ODMuMjciPjE8L3RleHQ+PHRleHQgZmlsbD0iIzAwMDAwMCIgZm9udC1mYW1pbHk9InNhbnMtc2VyaWYiIGZvbnQtc2l6ZT0iMTMiIGxlbmd0aEFkanVzdD0ic3BhY2luZyIgdGV4dExlbmd0aD0iNiIgeD0iNTA1LjUwMzEiIHk9IjU3My40OTczIj4qPC90ZXh0PjwvZz48IS0tbGluayBTdHVkZW50IHRvIENvdXJzZS0tPjxnIGlkPSJsaW5rX1N0dWRlbnRfQ291cnNlIj48cGF0aCBjb2RlTGluZT0iOTIiIGQ9Ik02MTYuMDcsNDYzLjEyIEM2NDMuODIsNDg3LjI4IDY3My44MSw1MTMuMzkgNzAxLjU4LDUzNy41NyAiIGZpbGw9Im5vbmUiIGlkPSJTdHVkZW50LUNvdXJzZSIgc3R5bGU9InN0cm9rZTojMTgxODE4O3N0cm9rZS13aWR0aDoxLjA7Ii8+PHRleHQgZmlsbD0iIzAwMDAwMCIgZm9udC1mYW1pbHk9InNhbnMtc2VyaWYiIGZvbnQtc2l6ZT0iMTMiIGxlbmd0aEFkanVzdD0ic3BhY2luZyIgdGV4dExlbmd0aD0iNDciIHg9IjY2MCIgeT0iNTA2LjI4OTEiPmVucm9sbHM8L3RleHQ+PHRleHQgZmlsbD0iIzAwMDAwMCIgZm9udC1mYW1pbHk9InNhbnMtc2VyaWYiIGZvbnQtc2l6ZT0iMTMiIGxlbmd0aEFkanVzdD0ic3BhY2luZyIgdGV4dExlbmd0aD0iNyIgeD0iNjE3LjA4NDIiIHk9IjQ4My4yNyI+MTwvdGV4dD48dGV4dCBmaWxsPSIjMDAwMDAwIiBmb250LWZhbWlseT0ic2Fucy1zZXJpZiIgZm9udC1zaXplPSIxMyIgbGVuZ3RoQWRqdXN0PSJzcGFjaW5nIiB0ZXh0TGVuZ3RoPSI2IiB4PSI2ODYuMzQ4NiIgeT0iNTI4LjQ0NTYiPio8L3RleHQ+PC9nPjwhLS1saW5rIFN0dWRlbnQgdG8gQm9vay0tPjxnIGlkPSJsaW5rX1N0dWRlbnRfQm9vayI+PHBhdGggY29kZUxpbmU9IjkzIiBkPSJNNDIwLjY4LDQ2My4xMiBDMzg1Ljc0LDQ5Ny43OCAzNDYuNzYsNTM2LjQ1IDMxNS4yOSw1NjcuNjggIiBmaWxsPSJub25lIiBpZD0iU3R1ZGVudC1Cb29rIiBzdHlsZT0ic3Ryb2tlOiMxODE4MTg7c3Ryb2tlLXdpZHRoOjEuMDsiLz48dGV4dCBmaWxsPSIjMDAwMDAwIiBmb250LWZhbWlseT0ic2Fucy1zZXJpZiIgZm9udC1zaXplPSIxMyIgbGVuZ3RoQWRqdXN0PSJzcGFjaW5nIiB0ZXh0TGVuZ3RoPSI0OCIgeD0iMzg0IiB5PSI1MDYuMjg5MSI+Ym9ycm93czwvdGV4dD48dGV4dCBmaWxsPSIjMDAwMDAwIiBmb250LWZhbWlseT0ic2Fucy1zZXJpZiIgZm9udC1zaXplPSIxMyIgbGVuZ3RoQWRqdXN0PSJzcGFjaW5nIiB0ZXh0TGVuZ3RoPSI3IiB4PSI0MDYuMTI0IiB5PSI0ODMuMjciPjE8L3RleHQ+PHRleHQgZmlsbD0iIzAwMDAwMCIgZm9udC1mYW1pbHk9InNhbnMtc2VyaWYiIGZvbnQtc2l6ZT0iMTMiIGxlbmd0aEFkanVzdD0ic3BhY2luZyIgdGV4dExlbmd0aD0iNiIgeD0iMzE2Ljc1ODQiIHk9IjU1OC4yNzkxIj4qPC90ZXh0PjwvZz48IS0tbGluayBBZG1pbiB0byBTdHVkZW50LS0+PGcgaWQ9ImxpbmtfQWRtaW5fU3R1ZGVudCI+PHBhdGggY29kZUxpbmU9Ijk0IiBkPSJNNjk2LjUzLDIwNS4xMiBDNjY5LjI2LDIyOS41NSA2NDAuMTUsMjU1LjY0IDYxMy4zLDI3OS43MSAiIGZpbGw9Im5vbmUiIGlkPSJBZG1pbi1TdHVkZW50IiBzdHlsZT0ic3Ryb2tlOiMxODE4MTg7c3Ryb2tlLXdpZHRoOjEuMDsiLz48dGV4dCBmaWxsPSIjMDAwMDAwIiBmb250LWZhbWlseT0ic2Fucy1zZXJpZiIgZm9udC1zaXplPSIxMyIgbGVuZ3RoQWRqdXN0PSJzcGFjaW5nIiB0ZXh0TGVuZ3RoPSI0OCIgeD0iNjYwIiB5PSIyNDguMjg5MSI+bWFuYWdlczwvdGV4dD48dGV4dCBmaWxsPSIjMDAwMDAwIiBmb250LWZhbWlseT0ic2Fucy1zZXJpZiIgZm9udC1zaXplPSIxMyIgbGVuZ3RoQWRqdXN0PSJzcGFjaW5nIiB0ZXh0TGVuZ3RoPSI3IiB4PSI2ODEuMjMzOCIgeT0iMjI1LjIwNDgiPjE8L3RleHQ+PHRleHQgZmlsbD0iIzAwMDAwMCIgZm9udC1mYW1pbHk9InNhbnMtc2VyaWYiIGZvbnQtc2l6ZT0iMTMiIGxlbmd0aEFkanVzdD0ic3BhY2luZyIgdGV4dExlbmd0aD0iNiIgeD0iNjE2LjA1NDgiIHk9IjI3MC4yOTIxIj4qPC90ZXh0PjwvZz48IS0tbGluayBBZG1pbiB0byBDb3Vyc2UtLT48ZyBpZD0ibGlua19BZG1pbl9Db3Vyc2UiPjxwYXRoIGNvZGVMaW5lPSI5NSIgZD0iTTkxMi42NSwyMDUuNDYgQzkzMC43OSwyMjguMDMgOTQ2Ljk5LDI1My4zMSA5NTcsMjgwIEM5ODUuNTYsMzU2LjE1IDk4Ni40LDM4Ny4xNyA5NTcsNDYzIEM5NDYuNTMsNDkwLjAyIDkyOS4zNiw1MTUuMzMgOTEwLjI5LDUzNy42MyAiIGZpbGw9Im5vbmUiIGlkPSJBZG1pbi1Db3Vyc2UiIHN0eWxlPSJzdHJva2U6IzE4MTgxODtzdHJva2Utd2lkdGg6MS4wOyIvPjx0ZXh0IGZpbGw9IiMwMDAwMDAiIGZvbnQtZmFtaWx5PSJzYW5zLXNlcmlmIiBmb250LXNpemU9IjEzIiBsZW5ndGhBZGp1c3Q9InNwYWNpbmciIHRleHRMZW5ndGg9IjQ4IiB4PSI5NzkiIHk9IjM3Ny4yODkxIj5tYW5hZ2VzPC90ZXh0Pjx0ZXh0IGZpbGw9IiMwMDAwMDAiIGZvbnQtZmFtaWx5PSJzYW5zLXNlcmlmIiBmb250LXNpemU9IjEzIiBsZW5ndGhBZGp1c3Q9InNwYWNpbmciIHRleHRMZW5ndGg9IjciIHg9IjkxMi45MDI3IiB5PSIyMjUuMjM3Ij4xPC90ZXh0Pjx0ZXh0IGZpbGw9IiMwMDAwMDAiIGZvbnQtZmFtaWx5PSJzYW5zLXNlcmlmIiBmb250LXNpemU9IjEzIiBsZW5ndGhBZGp1c3Q9InNwYWNpbmciIHRleHRMZW5ndGg9IjYiIHg9IjkxMi45OTQ2IiB5PSI1MjguNTEwNyI+KjwvdGV4dD48L2c+PCEtLWxpbmsgQWRtaW4gdG8gRGVwYXJ0bWVudC0tPjxnIGlkPSJsaW5rX0FkbWluX0RlcGFydG1lbnQiPjxwYXRoIGNvZGVMaW5lPSI5NiIgZD0iTTgwNiwyMDUuMTIgQzgwNiwyNDAuMjMgODA2LDI3OC43NyA4MDYsMzA5LjggIiBmaWxsPSJub25lIiBpZD0iQWRtaW4tRGVwYXJ0bWVudCIgc3R5bGU9InN0cm9rZTojMTgxODE4O3N0cm9rZS13aWR0aDoxLjA7Ii8+PHRleHQgZmlsbD0iIzAwMDAwMCIgZm9udC1mYW1pbHk9InNhbnMtc2VyaWYiIGZvbnQtc2l6ZT0iMTMiIGxlbmd0aEFkanVzdD0ic3BhY2luZyIgdGV4dExlbmd0aD0iNDgiIHg9IjgwNyIgeT0iMjQ4LjI4OTEiPm1hbmFnZXM8L3RleHQ+PHRleHQgZmlsbD0iIzAwMDAwMCIgZm9udC1mYW1pbHk9InNhbnMtc2VyaWYiIGZvbnQtc2l6ZT0iMTMiIGxlbmd0aEFkanVzdD0ic3BhY2luZyIgdGV4dExlbmd0aD0iNyIgeD0iNzk4Ljc0MyIgeT0iMjI1LjIwNDgiPjE8L3RleHQ+PHRleHQgZmlsbD0iIzAwMDAwMCIgZm9udC1mYW1pbHk9InNhbnMtc2VyaWYiIGZvbnQtc2l6ZT0iMTMiIGxlbmd0aEFkanVzdD0ic3BhY2luZyIgdGV4dExlbmd0aD0iNiIgeD0iNzk5LjYxNTYiIHk9IjMwMC40MTQ1Ij4qPC90ZXh0PjwvZz48IS0tbGluayBBZG1pbiB0byBGZWUtLT48ZyBpZD0ibGlua19BZG1pbl9GZWUiPjxwYXRoIGNvZGVMaW5lPSI5NyIgZD0iTTk4NS4xMSwyMDUuMTIgQzEwNjQuNTcsMjQ4LjY1IDExNTMuNjEsMjk3LjQzIDEyMTQuMjgsMzMwLjY2ICIgZmlsbD0ibm9uZSIgaWQ9IkFkbWluLUZlZSIgc3R5bGU9InN0cm9rZTojMTgxODE4O3N0cm9rZS13aWR0aDoxLjA7Ii8+PHRleHQgZmlsbD0iIzAwMDAwMCIgZm9udC1mYW1pbHk9InNhbnMtc2VyaWYiIGZvbnQtc2l6ZT0iMTMiIGxlbmd0aEFkanVzdD0ic3BhY2luZyIgdGV4dExlbmd0aD0iNDgiIHg9IjEwNjEiIHk9IjI0OC4yODkxIj5tYW5hZ2VzPC90ZXh0Pjx0ZXh0IGZpbGw9IiMwMDAwMDAiIGZvbnQtZmFtaWx5PSJzYW5zLXNlcmlmIiBmb250LXNpemU9IjEzIiBsZW5ndGhBZGp1c3Q9InNwYWNpbmciIHRleHRMZW5ndGg9IjciIHg9Ijk5MS4wMDY0IiB5PSIyMjUuMjA0OCI+MTwvdGV4dD48dGV4dCBmaWxsPSIjMDAwMDAwIiBmb250LWZhbWlseT0ic2Fucy1zZXJpZiIgZm9udC1zaXplPSIxMyIgbGVuZ3RoQWRqdXN0PSJzcGFjaW5nIiB0ZXh0TGVuZ3RoPSI2IiB4PSIxMjAwLjQ3MTQiIHk9IjMyNS4xMTgzIj4qPC90ZXh0PjwvZz48IS0tbGluayBMaWJyYXJ5U3lzdGVtIHRvIEJvb2stLT48ZyBpZD0ibGlua19MaWJyYXJ5U3lzdGVtX0Jvb2siPjxwYXRoIGNvZGVMaW5lPSI5OCIgZD0iTTE5Ni43Nyw0MzMuMTcgQzIwOC42OSw0NzMuODMgMjI0LjMxLDUyNy4xNiAyMzYuMjIsNTY3LjgyICIgZmlsbD0ibm9uZSIgaWQ9IkxpYnJhcnlTeXN0ZW0tQm9vayIgc3R5bGU9InN0cm9rZTojMTgxODE4O3N0cm9rZS13aWR0aDoxLjA7Ii8+PHRleHQgZmlsbD0iIzAwMDAwMCIgZm9udC1mYW1pbHk9InNhbnMtc2VyaWYiIGZvbnQtc2l6ZT0iMTMiIGxlbmd0aEFkanVzdD0ic3BhY2luZyIgdGV4dExlbmd0aD0iNDgiIHg9IjIxOCIgeT0iNTA2LjI4OTEiPm1hbmFnZXM8L3RleHQ+PHRleHQgZmlsbD0iIzAwMDAwMCIgZm9udC1mYW1pbHk9InNhbnMtc2VyaWYiIGZvbnQtc2l6ZT0iMTMiIGxlbmd0aEFkanVzdD0ic3BhY2luZyIgdGV4dExlbmd0aD0iNyIgeD0iMTkxLjQyIiB5PSI0NTMuMzk4NiI+MTwvdGV4dD48dGV4dCBmaWxsPSIjMDAwMDAwIiBmb250LWZhbWlseT0ic2Fucy1zZXJpZiIgZm9udC1zaXplPSIxMyIgbGVuZ3RoQWRqdXN0PSJzcGFjaW5nIiB0ZXh0TGVuZ3RoPSI2IiB4PSIyMjcuNTU3NiIgeT0iNTU4LjQzNzEiPio8L3RleHQ+PC9nPjwhLS1saW5rIERlcGFydG1lbnQgdG8gQ291cnNlLS0+PGcgaWQ9ImxpbmtfRGVwYXJ0bWVudF9Db3Vyc2UiPjxwYXRoIGNvZGVMaW5lPSI5OSIgZD0iTTgwNiw0MzMuMTcgQzgwNiw0NjQuMzcgODA2LDUwMy4wMiA4MDYsNTM3LjcgIiBmaWxsPSJub25lIiBpZD0iRGVwYXJ0bWVudC1Db3Vyc2UiIHN0eWxlPSJzdHJva2U6IzE4MTgxODtzdHJva2Utd2lkdGg6MS4wOyIvPjx0ZXh0IGZpbGw9IiMwMDAwMDAiIGZvbnQtZmFtaWx5PSJzYW5zLXNlcmlmIiBmb250LXNpemU9IjEzIiBsZW5ndGhBZGp1c3Q9InNwYWNpbmciIHRleHRMZW5ndGg9IjQwIiB4PSI4MDciIHk9IjUwNi4yODkxIj5vZmZlcnM8L3RleHQ+PHRleHQgZmlsbD0iIzAwMDAwMCIgZm9udC1mYW1pbHk9InNhbnMtc2VyaWYiIGZvbnQtc2l6ZT0iMTMiIGxlbmd0aEFkanVzdD0ic3BhY2luZyIgdGV4dExlbmd0aD0iNyIgeD0iNzk4LjU5NTMiIHk9IjQ1My4zOTg2Ij4xPC90ZXh0Pjx0ZXh0IGZpbGw9IiMwMDAwMDAiIGZvbnQtZmFtaWx5PSJzYW5zLXNlcmlmIiBmb250LXNpemU9IjEzIiBsZW5ndGhBZGp1c3Q9InNwYWNpbmciIHRleHRMZW5ndGg9IjYiIHg9Ijc5OS43MzI4IiB5PSI1MjguMjgxMiI+KjwvdGV4dD48L2c+PCEtLWxpbmsgRmVlU3lzdGVtIHRvIEZlZS0tPjxnIGlkPSJsaW5rX0ZlZVN5c3RlbV9GZWUiPjxwYXRoIGNvZGVMaW5lPSIxMDAiIGQ9Ik0xNjUyLjUxLDE1Mi42IEMxNTcwLjI0LDIwMS42NSAxNDQwLjM3LDI3OS4wNyAxMzU5LjYyLDMyNy4yMSAiIGZpbGw9Im5vbmUiIGlkPSJGZWVTeXN0ZW0tRmVlIiBzdHlsZT0ic3Ryb2tlOiMxODE4MTg7c3Ryb2tlLXdpZHRoOjEuMDsiLz48dGV4dCBmaWxsPSIjMDAwMDAwIiBmb250LWZhbWlseT0ic2Fucy1zZXJpZiIgZm9udC1zaXplPSIxMyIgbGVuZ3RoQWRqdXN0PSJzcGFjaW5nIiB0ZXh0TGVuZ3RoPSI2MiIgeD0iMTUwOSIgeT0iMjQ4LjI4OTEiPmdlbmVyYXRlczwvdGV4dD48dGV4dCBmaWxsPSIjMDAwMDAwIiBmb250LWZhbWlseT0ic2Fucy1zZXJpZiIgZm9udC1zaXplPSIxMyIgbGVuZ3RoQWRqdXN0PSJzcGFjaW5nIiB0ZXh0TGVuZ3RoPSI3IiB4PSIxNjMzLjc2MTUiIHk9IjE3Mi43NTg3Ij4xPC90ZXh0Pjx0ZXh0IGZpbGw9IiMwMDAwMDAiIGZvbnQtZmFtaWx5PSJzYW5zLXNlcmlmIiBmb250LXNpemU9IjEzIiBsZW5ndGhBZGp1c3Q9InNwYWNpbmciIHRleHRMZW5ndGg9IjYiIHg9IjEzNjcuNDE4MyIgeT0iMzIxLjMxMjUiPio8L3RleHQ+PC9nPjwhLS1saW5rIEFjY291bnRhbnQgdG8gRmVlLS0+PGcgaWQ9ImxpbmtfQWNjb3VudGFudF9GZWUiPjxwYXRoIGNvZGVMaW5lPSIxMDEiIGQ9Ik0xMjg3LDE3NS4yIEMxMjg3LDIxNi44MyAxMjg3LDI2OS41OSAxMjg3LDMwOS43OCAiIGZpbGw9Im5vbmUiIGlkPSJBY2NvdW50YW50LUZlZSIgc3R5bGU9InN0cm9rZTojMTgxODE4O3N0cm9rZS13aWR0aDoxLjA7Ii8+PHRleHQgZmlsbD0iIzAwMDAwMCIgZm9udC1mYW1pbHk9InNhbnMtc2VyaWYiIGZvbnQtc2l6ZT0iMTMiIGxlbmd0aEFkanVzdD0ic3BhY2luZyIgdGV4dExlbmd0aD0iNDgiIHg9IjEyODgiIHk9IjI0OC4yODkxIj5tYW5hZ2VzPC90ZXh0Pjx0ZXh0IGZpbGw9IiMwMDAwMDAiIGZvbnQtZmFtaWx5PSJzYW5zLXNlcmlmIiBmb250LXNpemU9IjEzIiBsZW5ndGhBZGp1c3Q9InNwYWNpbmciIHRleHRMZW5ndGg9IjciIHg9IjEyNzkuNjM5MSIgeT0iMTk1LjM0NzYiPjE8L3RleHQ+PHRleHQgZmlsbD0iIzAwMDAwMCIgZm9udC1mYW1pbHk9InNhbnMtc2VyaWYiIGZvbnQtc2l6ZT0iMTMiIGxlbmd0aEFkanVzdD0ic3BhY2luZyIgdGV4dExlbmd0aD0iNiIgeD0iMTI4MC42MTU2IiB5PSIzMDAuMzkxOSI+KjwvdGV4dD48L2c+PCEtLVNSQz1bcExMQlp2aW00QnhwQXdvU0lCanh3MUxMYU5PUmpMcmZmTFJBQnQzbUdBbzI3VGFjQXJKcmx6U2xDQ1FjWi1zYkVIMHlCeXp5dHluR1RyWEFUNTgzMFFSR3ptQmZ0cmxmWmFfN0ljaTRQUXFKQ3puM0I4NFVxb3VNTkktU2hRbW04R0FhWjhOM2JNMDVKd3BYdlR2OTFCSEtBWDBWLTIwYWJCTnoycGJ1Z25rNWJxeTI0djNibGFCRnNrRXpGSHh5ek5aeTI1ZzdVcHVtTFE0Wjd5dVR4OGlWSEw3UktYejhKemJLQTNRN0x2TWZRX0FXYkh3alFhOW5sb3BHb3NvVDJRcHhFTFBLU3VOU0NHaGFIM1JFMVo4d3AxNmtNQVpVUDROY0xtdDJfMXc1MzY4UkRkWWFlUU1hQlZpQ2M3bmZpZFM0WnBqcTVScEhUN0VuMzNGWngtZ08yNVlOdWdJQWdjdjVXVVF4NWxJZ0E2VW5lWFAwZ0RCREhQZG90TGpWVzBwaDAxc2xTVWdEUnZmUFZBT1RMVUNZWDhSSURiTEFzSHJnWlE5MkxYXzEtT1NVQ25Cc185a0hvLUZaMHRoSDdGMlBkV0tNdXNkS0t6STc1WVVGZDd5aHBfZkg4VkNROU1xNGJkc1pKdFdfU283dVlfTkZyOUxyNFEwNm1WeEFuT3BxR3pTUGRwM0t2ZEc4alBkWkw1OFNQQkRieUEwa05DR29nUjBRTGZsODVHZGFTS21YM1NxLU5QeGgtUXN6U1Q0M2F3b0RWbnByRUpNenZjQWNNczBXeDR3elNMZmRFdDZ6NUhVTlZpTVpBVWZhMFNodm5qMGpnQkZ4RGpyamRhVWpGS0g5Si1hc2FGSnJuWDM0TU5pUTFaWmdoQkxHRnhGU1hlclZyeU9WMW14bkI3ZEx4bC1fV1B3LXZSanRFdEhfWnRQbFRjeEp2MUgtNkxTOGNFMVQ5dENzVGw4Z3ZBUDQ1a3h4a1QxRkJYTmdDU0NqUDRwY1FwT2o1ZEZzMm9sSkZLNFRoeGlxdXliazRKa040c3lRNEI4OHV2SFNFRjZqQ21namo5Tk1KbTAwXS0tPjwvZz48L3N2Zz4=;" parent="1" vertex="1">
                        <mxGeometry x="-482" y="-130" width="2925.84" height="1097" as="geometry"/>
                    </mxCell>
                </UserObject>
            </root>
        </mxGraphModel>
    </diagram>
</mxfile>